<svg viewBox="0 0 716 269" fill="none" xmlns="http://www.w3.org/2000/svg"><rect width="716" height="269" rx="16" fill="#1CB0F6"/><rect width="716" height="269" rx="16" fill="#50C800"/><rect width="716" height="269" rx="16" fill="#F0F3F5"/><mask id="mask0" mask-type="alpha" maskUnits="userSpaceOnUse" x="0" y="0" width="716" height="269"><rect width="716" height="269" rx="16" fill="#1CB0F6"/><rect width="716" height="269" rx="16" fill="#50C800"/><rect width="716" height="269" rx="16" fill="#F0F3F5"/></mask><g mask="url(#mask0)"><g clip-path="url(#clip0)"><path fill-rule="evenodd" clip-rule="evenodd" d="M377.485 118.82H382.193C386.342 118.82 389.614 122.159 389.614 126.215C389.614 130.349 386.262 133.609 382.193 133.609H377.485C373.335 133.609 370.064 130.27 370.064 126.215C369.984 122.159 373.335 118.82 377.485 118.82Z" fill="#FFC6B7"/><path fill-rule="evenodd" clip-rule="evenodd" d="M416.903 81.7659C436.692 81.7659 453.369 96.317 455.923 115.878L463.423 172.492C463.583 173.525 462.785 174.559 461.748 174.718C461.668 174.718 461.588 174.718 461.508 174.718H373.095C371.978 174.718 371.101 173.844 371.101 172.73C371.101 172.651 371.101 172.571 371.101 172.492L378.123 115.878C380.516 96.3965 397.194 81.7659 416.903 81.7659Z" fill="#A570FF"/><path fill-rule="evenodd" clip-rule="evenodd" d="M450.417 118.82H455.125C459.275 118.82 462.546 122.159 462.546 126.215C462.546 130.349 459.195 133.609 455.125 133.609H450.417C446.268 133.609 442.996 130.27 442.996 126.215C442.917 122.159 446.268 118.82 450.417 118.82Z" fill="#FFC6B7"/><path fill-rule="evenodd" clip-rule="evenodd" d="M410.36 155.953H423.766V171.935H410.36V155.953Z" fill="#FFC6B7"/><path fill-rule="evenodd" clip-rule="evenodd" d="M416.241 87.6235H417.438C437.147 87.6235 453.106 103.526 453.106 123.166V142.807C453.106 151.553 445.925 158.709 437.147 158.709H396.532C387.754 158.709 380.573 151.553 380.573 142.807V123.166C380.573 103.526 396.532 87.6235 416.241 87.6235Z" fill="#FFC6B7"/><mask id="mask1" mask-type="alpha" maskUnits="userSpaceOnUse" x="380" y="87" width="74" height="72"><path fill-rule="evenodd" clip-rule="evenodd" d="M416.241 87.6235H417.438C437.147 87.6235 453.106 103.526 453.106 123.166V142.807C453.106 151.553 445.925 158.709 437.147 158.709H396.532C387.754 158.709 380.573 151.553 380.573 142.807V123.166C380.573 103.526 396.532 87.6235 416.241 87.6235Z" fill="white"/></mask><g mask="url(#mask1)"><path fill-rule="evenodd" clip-rule="evenodd" d="M416.879 126.268C417.677 126.268 418.316 126.824 418.396 127.619L419.832 140.898C419.991 142.568 418.794 143.999 417.199 144.158C417.119 144.158 416.959 144.158 416.879 144.158C415.204 144.158 413.927 142.807 413.927 141.216C413.927 141.137 413.927 140.978 413.927 140.898L415.363 127.619C415.443 126.824 416.081 126.268 416.879 126.268Z" fill="#EE9583"/></g><mask id="mask2" mask-type="alpha" maskUnits="userSpaceOnUse" x="380" y="87" width="74" height="72"><path fill-rule="evenodd" clip-rule="evenodd" d="M416.241 87.6235H417.438C437.147 87.6235 453.106 103.526 453.106 123.166V142.807C453.106 151.553 445.925 158.709 437.147 158.709H396.532C387.754 158.709 380.573 151.553 380.573 142.807V123.166C380.573 103.526 396.532 87.6235 416.241 87.6235Z" fill="white"/></mask><g mask="url(#mask2)"><path fill-rule="evenodd" clip-rule="evenodd" d="M439.769 124.332H430.354C424.529 124.332 419.741 129.024 419.741 134.908V136.1L436.179 134.431C438.892 134.192 440.966 131.886 440.966 129.183V125.605C440.966 124.809 440.488 124.332 439.769 124.332Z" fill="#A570FF"/><path d="M430.433 129.739H440.168C440.647 129.739 441.046 129.978 441.046 130.375V130.534C441.046 134.669 436.338 138.009 430.433 138.009H420.698C420.22 138.009 419.821 137.77 419.821 137.373V137.214C419.821 133.079 424.528 129.739 430.433 129.739Z" fill="white"/><mask id="mask3" mask-type="alpha" maskUnits="userSpaceOnUse" x="419" y="129" width="23" height="10"><path fill-rule="evenodd" clip-rule="evenodd" d="M430.433 129.739H440.168C440.647 129.739 441.046 129.978 441.046 130.375V130.534C441.046 134.669 436.338 138.009 430.433 138.009H420.698C420.22 138.009 419.821 137.77 419.821 137.373V137.214C419.821 133.079 424.528 129.739 430.433 129.739Z" fill="white"/></mask><g mask="url(#mask3)"><path fill-rule="evenodd" clip-rule="evenodd" d="M428.199 125.445C425.885 125.445 424.05 127.274 424.05 129.501V131.886C424.05 134.113 425.885 135.941 428.119 135.941C430.354 135.941 432.189 134.113 432.189 131.886V129.501C432.348 127.274 430.513 125.445 428.199 125.445Z" fill="#4B4B4B"/></g></g><mask id="mask4" mask-type="alpha" maskUnits="userSpaceOnUse" x="380" y="87" width="74" height="72"><path fill-rule="evenodd" clip-rule="evenodd" d="M416.241 87.6235H417.438C437.147 87.6235 453.106 103.526 453.106 123.166V142.807C453.106 151.553 445.925 158.709 437.147 158.709H396.532C387.754 158.709 380.573 151.553 380.573 142.807V123.166C380.573 103.526 396.532 87.6235 416.241 87.6235Z" fill="white"/></mask><g mask="url(#mask4)"><path d="M403.343 125.894H393.608C393.129 125.894 392.73 126.133 392.73 126.53V126.689C392.73 130.824 397.438 134.164 403.343 134.164H413.078C413.556 134.164 413.955 133.925 413.955 133.528V133.369C413.955 129.234 409.168 125.894 403.343 125.894Z" fill="white"/><mask id="mask5" mask-type="alpha" maskUnits="userSpaceOnUse" x="392" y="125" width="22" height="10"><path fill-rule="evenodd" clip-rule="evenodd" d="M403.343 125.894H393.608C393.129 125.894 392.73 126.133 392.73 126.53V126.689C392.73 130.824 397.438 134.164 403.343 134.164H413.078C413.556 134.164 413.955 133.925 413.955 133.528V133.369C413.955 129.234 409.168 125.894 403.343 125.894Z" fill="white"/></mask><g mask="url(#mask5)"><path fill-rule="evenodd" clip-rule="evenodd" d="M405.497 121.601C407.811 121.601 409.646 123.429 409.646 125.656V128.041C409.646 130.268 407.811 132.096 405.577 132.096C403.343 132.096 401.507 130.268 401.507 128.041V125.656C401.348 123.429 403.183 121.601 405.497 121.601Z" fill="#4B4B4B"/></g></g><mask id="mask6" mask-type="alpha" maskUnits="userSpaceOnUse" x="380" y="87" width="74" height="72"><path fill-rule="evenodd" clip-rule="evenodd" d="M416.241 87.6235H417.438C437.147 87.6235 453.106 103.526 453.106 123.166V142.807C453.106 151.553 445.925 158.709 437.147 158.709H396.532C387.754 158.709 380.573 151.553 380.573 142.807V123.166C380.573 103.526 396.532 87.6235 416.241 87.6235Z" fill="white"/></mask><g mask="url(#mask6)"><path fill-rule="evenodd" clip-rule="evenodd" d="M410.256 62.9741H474.731C477.125 62.9741 479.04 64.8825 479.04 67.2679V114.499C479.04 116.885 477.125 118.793 474.731 118.793H438.344C427.891 118.793 418.635 111.875 415.762 101.857L406.107 68.4606C405.469 66.1547 406.745 63.7693 409.059 63.1331C409.458 63.0536 409.857 62.9741 410.256 62.9741Z" fill="#A570FF"/></g><path fill-rule="evenodd" clip-rule="evenodd" d="M404.136 178.853L403.578 179.171C401.742 180.046 400.386 181.715 399.907 183.783L376.447 281.029C375.809 283.573 377.405 286.118 379.958 286.754C380.357 286.833 380.677 286.913 381.076 286.913H402.939C405.573 286.913 407.647 284.766 407.647 282.222V181.238C407.647 179.887 406.53 178.853 405.253 178.853C404.854 178.614 404.455 178.694 404.136 178.853Z" fill="#4B4B4B"/><path fill-rule="evenodd" clip-rule="evenodd" d="M429.75 178.376H429.83C432.064 179.171 433.74 181 434.299 183.306L457.28 280.95C457.838 283.494 456.322 286.038 453.769 286.595C453.45 286.675 453.051 286.754 452.652 286.754H430.788C428.154 286.754 426.08 284.607 426.08 282.063V181C426.08 179.489 427.357 178.217 428.873 178.217C429.192 178.217 429.511 178.217 429.75 178.376Z" fill="#4B4B4B"/><path d="M426.878 227.039H407.248V315.697H426.878V227.039Z" fill="#A570FF"/><path fill-rule="evenodd" clip-rule="evenodd" d="M417.031 169.633C426.766 169.633 434.666 177.504 434.666 187.205V224.816C434.666 226.644 433.389 228.235 431.554 228.632L404.025 234.437C401.95 234.914 399.875 233.562 399.396 231.415C399.317 231.177 399.317 230.859 399.317 230.62V187.205C399.396 177.504 407.296 169.633 417.031 169.633Z" fill="#4B4B4B"/><mask id="mask7" mask-type="alpha" maskUnits="userSpaceOnUse" x="399" y="169" width="36" height="66"><path fill-rule="evenodd" clip-rule="evenodd" d="M417.031 169.633C426.766 169.633 434.666 177.504 434.666 187.205V224.816C434.666 226.644 433.389 228.235 431.554 228.632L404.025 234.437C401.95 234.914 399.875 233.562 399.396 231.415C399.317 231.177 399.317 230.859 399.317 230.62V187.205C399.396 177.504 407.296 169.633 417.031 169.633Z" fill="white"/></mask><g mask="url(#mask7)"><path d="M403.147 186.013C415.178 186.013 424.931 176.294 424.931 164.305C424.931 152.316 415.178 142.598 403.147 142.598C391.116 142.598 381.363 152.316 381.363 164.305C381.363 176.294 391.116 186.013 403.147 186.013Z" fill="#FFC6B7"/></g><path d="M424.324 151.261C426.878 146.331 429.511 144.503 432.224 145.854" stroke="#EE9583" stroke-width="3.2437" stroke-linecap="round" stroke-linejoin="round"/><path fill-rule="evenodd" clip-rule="evenodd" d="M399.827 90.6714L401.184 89.9558L413.871 85.185C415.068 84.7079 416.425 85.344 416.903 86.5367C416.983 86.8548 417.063 87.0933 417.063 87.4114L414.51 172.81C414.51 173.844 413.632 174.718 412.515 174.718H380.597C379.32 174.718 378.283 173.684 378.283 172.412V125.658C378.203 110.789 386.581 97.2711 399.827 90.6714Z" fill="#A570FF"/></g><g clip-path="url(#clip1)"><path d="M65.2633 148.614C73.4628 148.614 80.1099 141.969 80.1099 133.771C80.1099 125.573 73.4628 118.928 65.2633 118.928C57.0637 118.928 50.4166 125.573 50.4166 133.771C50.4166 141.969 57.0637 148.614 65.2633 148.614Z" fill="#FF9600"/><path d="M116.827 130.659H65.2633V148.295H116.827V130.659Z" fill="#FF9600"/><path fill-rule="evenodd" clip-rule="evenodd" d="M62.9484 246.373C67.0991 248.208 69.0148 253.156 67.1789 257.305L61.8309 269.196C59.9951 273.346 55.0462 275.261 50.8955 273.426C46.7448 271.59 44.8291 266.642 46.665 262.493L52.013 250.602C53.9287 246.373 58.7977 244.457 62.9484 246.373Z" fill="#FFB5A1"/><path d="M114.992 148.295C122.398 148.295 128.401 142.293 128.401 134.888C128.401 127.484 122.398 121.481 114.992 121.481C107.585 121.481 101.582 127.484 101.582 134.888C101.582 142.293 107.585 148.295 114.992 148.295Z" fill="#FF9600"/><path fill-rule="evenodd" clip-rule="evenodd" d="M118.753 247.423C114.602 249.259 112.687 254.206 114.523 258.356L119.152 268.651C120.988 272.8 125.937 274.716 130.088 272.88C134.238 271.045 136.154 266.097 134.318 261.947L129.689 251.653C127.853 247.423 122.984 245.588 118.753 247.423Z" fill="#FFB5A1"/><path d="M59.5958 177.263C64.4891 177.263 68.4559 173.297 68.4559 168.405C68.4559 163.513 64.4891 159.547 59.5958 159.547C54.7025 159.547 50.7357 163.513 50.7357 168.405C50.7357 173.297 54.7025 177.263 59.5958 177.263Z" fill="#FFC6B7"/><path d="M122.016 177.263C126.909 177.263 130.876 173.297 130.876 168.405C130.876 163.513 126.909 159.547 122.016 159.547C117.122 159.547 113.156 163.513 113.156 168.405C113.156 173.297 117.122 177.263 122.016 177.263Z" fill="#FFC6B7"/><path fill-rule="evenodd" clip-rule="evenodd" d="M67.5779 219.399L79.7904 224.826C81.5465 225.624 82.3447 227.699 81.5465 229.454L67.4981 261.056C66.6998 262.812 64.6245 263.61 62.8685 262.812L50.6559 257.385C48.8999 256.587 48.1017 254.512 48.8999 252.757L62.9483 221.155C63.7465 219.399 65.8218 218.601 67.5779 219.399Z" fill="#EDE1CF"/><path fill-rule="evenodd" clip-rule="evenodd" d="M114.273 219.08L101.981 224.506C100.225 225.305 99.4264 227.379 100.145 229.135L114.273 260.737C115.071 262.492 117.147 263.291 118.903 262.492L131.195 257.066C132.951 256.268 133.749 254.193 133.031 252.437L118.903 220.836C118.104 219.16 116.029 218.362 114.273 219.08Z" fill="#EDE1CF"/><path fill-rule="evenodd" clip-rule="evenodd" d="M65.2633 148.295H116.748V207.189H65.2633V148.295Z" fill="#FFC6B7"/><path fill-rule="evenodd" clip-rule="evenodd" d="M65.0156 218.435H116.899V243.892H65.0156V218.435Z" fill="#EDE1CF"/><path fill-rule="evenodd" clip-rule="evenodd" d="M79.4427 156.352H79.2831C74.4938 156.352 70.5826 160.263 70.5826 165.051V171.914C70.5826 176.702 74.4938 180.612 79.2831 180.612H79.4427C84.232 180.612 88.1432 176.702 88.1432 171.914V165.051C88.1432 160.263 84.232 156.352 79.4427 156.352Z" fill="white"/><path fill-rule="evenodd" clip-rule="evenodd" d="M80.5602 161.779C78.2454 161.779 76.4095 163.615 76.4095 165.849V171.196C76.4095 173.43 78.2454 175.266 80.4804 175.266H80.5602C82.7952 175.266 84.6311 173.43 84.6311 171.196V165.849C84.6311 163.615 82.7952 161.779 80.5602 161.779Z" fill="#4B4B4B"/><path fill-rule="evenodd" clip-rule="evenodd" d="M102.581 156.352H102.741C107.53 156.352 111.441 160.263 111.441 165.051V171.914C111.441 176.702 107.53 180.612 102.741 180.612H102.581C97.7918 180.612 93.8806 176.702 93.8806 171.914V165.051C93.8008 160.263 97.712 156.352 102.581 156.352Z" fill="white"/><path fill-rule="evenodd" clip-rule="evenodd" d="M101.384 161.779C103.699 161.779 105.535 163.615 105.535 165.849V171.196C105.535 173.43 103.699 175.266 101.464 175.266H101.384C99.1489 175.266 97.313 173.43 97.313 171.196V165.849C97.313 163.615 99.1489 161.779 101.384 161.779Z" fill="#4B4B4B"/><path fill-rule="evenodd" clip-rule="evenodd" d="M113.475 170.64C110.122 169.602 106.451 169.522 102.46 170.321C98.4686 171.119 94.6372 172.555 90.8856 174.789L92.482 183.089L113.235 179.019L113.475 170.64Z" fill="#FFC6B7"/><path fill-rule="evenodd" clip-rule="evenodd" d="M67.0193 170.241C71.0103 169.922 75.0013 170.081 78.9924 170.879C82.9834 171.677 86.4955 172.795 89.6085 174.311L88.0121 182.61L67.2587 178.54L67.0193 170.241Z" fill="#FFC6B7"/><path fill-rule="evenodd" clip-rule="evenodd" d="M90.7632 180.816L97.5014 179.507L98.0041 182.092C98.3697 183.972 97.1705 185.75 95.2901 186.116C93.4096 186.481 91.6315 185.282 91.2659 183.402L90.7632 180.816Z" fill="white"/><path fill-rule="evenodd" clip-rule="evenodd" d="M96.5288 179.94L101.859 175.571L103.243 177.253C104.425 178.731 104.194 180.89 102.732 182.149C101.254 183.331 99.0947 183.1 97.913 181.622L96.5288 179.94Z" fill="white"/><path d="M83.4723 182.693C92.3463 180.635 98.5337 178.091 101.955 175.068" stroke="#FFC6B7" stroke-width="5.3078"/><path fill-rule="evenodd" clip-rule="evenodd" d="M88.7304 170.879H92.9609C94.6372 170.879 95.9941 172.236 95.9941 173.912C95.9941 175.588 94.6372 176.944 92.9609 176.944H88.7304C87.0542 176.944 85.6973 175.588 85.6973 173.912C85.6973 172.156 87.0542 170.879 88.7304 170.879Z" fill="#FD9477"/><path fill-rule="evenodd" clip-rule="evenodd" d="M65.9017 243.899H117.785C121.457 243.899 124.49 246.931 124.49 250.602V264.009C124.49 267.68 121.457 270.712 117.785 270.712H65.9017C62.23 270.712 59.1968 267.68 59.1968 264.009V250.602C59.1968 246.851 62.23 243.899 65.9017 243.899Z" fill="#58A700"/><path d="M84.2606 149.013C97.5298 149.013 108.287 138.259 108.287 124.993C108.287 111.726 97.5298 100.972 84.2606 100.972C70.9914 100.972 60.2346 111.726 60.2346 124.993C60.2346 138.259 70.9914 149.013 84.2606 149.013Z" fill="#FF9600"/><path d="M75.0812 155.318C81.5174 155.318 86.735 150.101 86.735 143.666C86.735 137.232 81.5174 132.015 75.0812 132.015C68.6449 132.015 63.4274 137.232 63.4274 143.666C63.4274 150.101 68.6449 155.318 75.0812 155.318Z" fill="#FF9600"/><path fill-rule="evenodd" clip-rule="evenodd" d="M64.3852 213.414L67.8175 212.536C68.7753 212.297 69.7332 212.855 69.9726 213.813L80.1098 251.639C80.3493 252.597 79.7906 253.555 78.8327 253.794L75.4004 254.672C74.4426 254.911 73.4847 254.353 73.2453 253.395L63.108 215.569C62.8686 214.611 63.4273 213.653 64.3852 213.414Z" fill="#58A700"/><path fill-rule="evenodd" clip-rule="evenodd" d="M117.706 213.414L114.273 212.536C113.315 212.297 112.358 212.855 112.118 213.813L101.981 251.56C101.741 252.517 102.3 253.475 103.258 253.714L106.69 254.592C107.648 254.832 108.606 254.273 108.845 253.315L118.983 215.489C119.222 214.611 118.663 213.653 117.706 213.414Z" fill="#58A700"/><path fill-rule="evenodd" clip-rule="evenodd" d="M64.5448 201.523H117.466C119.222 201.523 120.659 202.96 120.659 204.716V215.968C120.659 217.723 119.222 219.16 117.466 219.16H64.5448C62.7887 219.16 61.3519 217.723 61.3519 215.968V204.716C61.3519 202.96 62.7887 201.523 64.5448 201.523Z" fill="#EDE1CF"/><path opacity="0.5848" d="M76.518 257.306C78.6781 257.306 80.4292 255.555 80.4292 253.395C80.4292 251.236 78.6781 249.485 76.518 249.485C74.3579 249.485 72.6068 251.236 72.6068 253.395C72.6068 255.555 74.3579 257.306 76.518 257.306Z" fill="#5E7A00"/><path opacity="0.5848" d="M105.493 257.306C107.653 257.306 109.404 255.555 109.404 253.395C109.404 251.236 107.653 249.485 105.493 249.485C103.333 249.485 101.582 251.236 101.582 253.395C101.582 255.555 103.333 257.306 105.493 257.306Z" fill="#5E7A00"/></g><g clip-path="url(#clip2)"><path fill-rule="evenodd" clip-rule="evenodd" d="M296.96 213.979C290.519 216.743 287.431 224.198 290.194 230.636L316.589 292.677C319.352 299.114 326.809 302.199 333.33 299.436C339.771 296.672 342.858 289.217 340.095 282.779L313.701 220.739C310.937 214.301 303.479 211.296 296.96 213.979Z" fill="#C6775C"/><path fill-rule="evenodd" clip-rule="evenodd" d="M282.966 195.567L280.382 196.94C271.938 201.457 268.718 211.925 273.146 220.434L301.081 272.781C305.598 281.22 316.07 284.435 324.514 279.918L327.098 278.545C335.542 274.028 338.762 263.56 334.334 255.051L306.478 202.714C301.882 194.265 291.401 191.129 282.966 195.567Z" fill="#D83867"/><path fill-rule="evenodd" clip-rule="evenodd" d="M208.873 213.979C215.314 216.743 218.402 224.198 215.639 230.636L189.244 292.676C186.481 299.114 179.024 302.198 172.503 299.436C166.062 296.672 162.974 289.217 165.738 282.779L192.132 220.738C194.896 214.301 202.354 211.296 208.873 213.979Z" fill="#C6775C"/><path fill-rule="evenodd" clip-rule="evenodd" d="M222.867 195.567L225.451 196.94C233.895 201.456 237.114 211.924 232.687 220.433L204.752 272.78C200.235 281.219 189.763 284.434 181.319 279.918L178.735 278.545C170.29 274.028 167.071 263.56 171.499 255.051L199.355 202.714C203.951 194.265 214.432 191.129 222.867 195.567Z" fill="#D83867"/><path fill-rule="evenodd" clip-rule="evenodd" d="M239.741 259.251H267.071C268.11 259.251 268.909 260.049 268.909 261.088V364.501C268.909 365.539 268.11 366.338 267.071 366.338H239.741C238.702 366.338 237.903 365.539 237.903 364.501V261.088C237.823 260.049 238.702 259.251 239.741 259.251Z" fill="#1C5D88"/><path fill-rule="evenodd" clip-rule="evenodd" d="M250.192 173.331H255.866C287.75 173.331 313.561 199.124 313.561 230.987C313.561 262.85 287.75 288.643 255.866 288.643H250.192C218.308 288.643 192.497 262.85 192.497 230.987C192.417 199.124 218.308 173.331 250.192 173.331Z" fill="#D83867"/><mask id="mask8" mask-type="alpha" maskUnits="userSpaceOnUse" x="192" y="173" width="122" height="116"><path fill-rule="evenodd" clip-rule="evenodd" d="M250.192 173.331H255.866C287.75 173.331 313.561 199.124 313.561 230.987C313.561 262.85 287.75 288.643 255.866 288.643H250.192C218.308 288.643 192.497 262.85 192.497 230.987C192.417 199.124 218.308 173.331 250.192 173.331Z" fill="white"/></mask><g mask="url(#mask8)"><path d="M321.84 258.189H182.483V297.796H321.84V258.189Z" fill="#1C5D88" stroke="#979797" stroke-width="1.2"/></g><mask id="mask9" mask-type="alpha" maskUnits="userSpaceOnUse" x="192" y="173" width="122" height="116"><path fill-rule="evenodd" clip-rule="evenodd" d="M250.192 173.331H255.866C287.75 173.331 313.561 199.124 313.561 230.987C313.561 262.85 287.75 288.643 255.866 288.643H250.192C218.308 288.643 192.497 262.85 192.497 230.987C192.417 199.124 218.308 173.331 250.192 173.331Z" fill="white"/></mask><g mask="url(#mask9)"><path d="M322.659 249.965H182.342V262.901H322.659V249.965Z" fill="#D78254"/></g><mask id="mask10" mask-type="alpha" maskUnits="userSpaceOnUse" x="192" y="173" width="122" height="116"><path fill-rule="evenodd" clip-rule="evenodd" d="M250.192 173.331H255.866C287.75 173.331 313.561 199.124 313.561 230.987C313.561 262.85 287.75 288.643 255.866 288.643H250.192C218.308 288.643 192.497 262.85 192.497 230.987C192.417 199.124 218.308 173.331 250.192 173.331Z" fill="white"/></mask><g mask="url(#mask10)"><path d="M227.142 249.987H220.509V263.642H227.142V249.987Z" fill="#1C5D88"/></g><mask id="mask11" mask-type="alpha" maskUnits="userSpaceOnUse" x="192" y="173" width="122" height="116"><path fill-rule="evenodd" clip-rule="evenodd" d="M250.192 173.331H255.866C287.75 173.331 313.561 199.124 313.561 230.987C313.561 262.85 287.75 288.643 255.866 288.643H250.192C218.308 288.643 192.497 262.85 192.497 230.987C192.417 199.124 218.308 173.331 250.192 173.331Z" fill="white"/></mask><g mask="url(#mask11)"><path d="M290.181 249.978H283.549V263.633H290.181V249.978Z" fill="#1C5D88"/></g><mask id="mask12" mask-type="alpha" maskUnits="userSpaceOnUse" x="192" y="173" width="122" height="116"><path fill-rule="evenodd" clip-rule="evenodd" d="M250.192 173.331H255.866C287.75 173.331 313.561 199.124 313.561 230.987C313.561 262.85 287.75 288.643 255.866 288.643H250.192C218.308 288.643 192.497 262.85 192.497 230.987C192.417 199.124 218.308 173.331 250.192 173.331Z" fill="white"/></mask><g mask="url(#mask12)"><path fill-rule="evenodd" clip-rule="evenodd" d="M243.639 249.993H263.937C264.336 249.993 264.656 250.312 264.656 250.712V262.131C264.656 262.53 264.336 262.85 263.937 262.85H243.639C243.24 262.85 242.92 262.53 242.92 262.131V250.712C242.92 250.312 243.24 249.993 243.639 249.993Z" fill="#DBDADA"/></g><mask id="mask13" mask-type="alpha" maskUnits="userSpaceOnUse" x="192" y="173" width="122" height="116"><path fill-rule="evenodd" clip-rule="evenodd" d="M250.192 173.331H255.866C287.75 173.331 313.561 199.124 313.561 230.987C313.561 262.85 287.75 288.643 255.866 288.643H250.192C218.308 288.643 192.497 262.85 192.497 230.987C192.417 199.124 218.308 173.331 250.192 173.331Z" fill="white"/></mask><g mask="url(#mask13)"><path d="M224.832 202.45L231.065 208.679L237.218 202.45" stroke="#C52F5B" stroke-width="6.9149" stroke-linecap="round" stroke-linejoin="round"/><path d="M224.832 218.262L231.065 224.49L237.218 218.262" stroke="#C52F5B" stroke-width="6.9149" stroke-linecap="round" stroke-linejoin="round"/><path d="M268.863 202.45L275.096 208.679L281.329 202.45" stroke="#C52F5B" stroke-width="6.9149" stroke-linecap="round" stroke-linejoin="round"/><path d="M268.863 218.262L275.096 224.49L281.329 218.262" stroke="#C52F5B" stroke-width="6.9149" stroke-linecap="round" stroke-linejoin="round"/><path d="M247.527 202.45L253.76 208.679L259.993 202.45" stroke="#C52F5B" stroke-width="6.9149" stroke-linecap="round" stroke-linejoin="round"/><path d="M247.527 218.262L253.76 224.49L259.993 218.262" stroke="#C52F5B" stroke-width="6.9149" stroke-linecap="round" stroke-linejoin="round"/></g><path d="M243.689 41.9492C218.566 47.2856 202.529 71.964 207.869 97.07C213.209 122.176 237.904 138.202 263.027 132.866C288.151 127.53 304.188 102.851 298.848 77.7452C293.508 52.6392 268.813 36.6128 243.689 41.9492Z" fill="#1C5D88"/><mask id="mask14" mask-type="alpha" maskUnits="userSpaceOnUse" x="206" y="40" width="94" height="94"><path d="M243.689 41.9492C218.566 47.2856 202.529 71.964 207.869 97.07C213.209 122.176 237.904 138.202 263.027 132.866C288.151 127.53 304.188 102.851 298.848 77.7452C293.508 52.6392 268.813 36.6128 243.689 41.9492Z" fill="white"/></mask><g mask="url(#mask14)"><path d="M243.78 87.0811L287.331 54.6595" stroke="black" stroke-opacity="0.2085" stroke-width="6.0089" stroke-linecap="square"/></g><path fill-rule="evenodd" clip-rule="evenodd" d="M233.947 90.9726L253.605 76.7582L272.943 90.9726C279.416 95.7639 283.332 103.35 283.332 111.336V176.978H223.478V111.416C223.478 103.35 227.314 95.6841 233.947 90.9726Z" fill="#C6775C"/><mask id="mask15" mask-type="alpha" maskUnits="userSpaceOnUse" x="223" y="76" width="61" height="101"><path fill-rule="evenodd" clip-rule="evenodd" d="M233.947 90.9726L253.605 76.7582L272.943 90.9726C279.416 95.7639 283.332 103.35 283.332 111.336V176.978H223.478V111.416C223.478 103.35 227.314 95.6841 233.947 90.9726Z" fill="white"/></mask><g mask="url(#mask15)"><path fill-rule="evenodd" clip-rule="evenodd" d="M263.495 94.0823C268.05 94.0823 271.806 97.8355 271.806 102.387V109.015C271.806 113.567 268.05 117.32 263.495 117.32C258.94 117.32 255.184 113.567 255.184 109.015V102.387C255.184 97.7557 258.94 94.0823 263.495 94.0823Z" fill="white"/><path fill-rule="evenodd" clip-rule="evenodd" d="M241.759 94.0823C237.204 94.0823 233.449 97.8355 233.449 102.387V109.015C233.449 113.567 237.204 117.32 241.759 117.32C246.314 117.32 250.07 113.567 250.07 109.015V102.387C250.07 97.7557 246.314 94.0823 241.759 94.0823Z" fill="white"/><path fill-rule="evenodd" clip-rule="evenodd" d="M243.198 99.9916C241.28 99.9916 239.682 101.589 239.682 103.505V107.897C239.682 109.814 241.28 111.411 243.198 111.411C245.116 111.411 246.714 109.814 246.714 107.897V103.505C246.714 101.509 245.116 99.9916 243.198 99.9916Z" fill="#4B4B4B"/><path fill-rule="evenodd" clip-rule="evenodd" d="M261.897 100.311C259.979 100.311 258.381 101.908 258.381 103.825V108.217C258.381 110.133 259.979 111.73 261.897 111.73C263.815 111.73 265.413 110.133 265.413 108.217V103.825C265.413 101.908 263.895 100.311 261.897 100.311Z" fill="#4B4B4B"/></g><mask id="mask16" mask-type="alpha" maskUnits="userSpaceOnUse" x="223" y="76" width="61" height="101"><path fill-rule="evenodd" clip-rule="evenodd" d="M233.947 90.9726L253.605 76.7582L272.943 90.9726C279.416 95.7639 283.332 103.35 283.332 111.336V176.978H223.478V111.416C223.478 103.35 227.314 95.6841 233.947 90.9726Z" fill="white"/></mask><g mask="url(#mask16)"><path d="M231.31 117.245C238.502 118.443 244.095 120.519 248.011 123.634" stroke="#C6775C" stroke-width="13.4045"/></g><mask id="mask17" mask-type="alpha" maskUnits="userSpaceOnUse" x="223" y="76" width="61" height="101"><path fill-rule="evenodd" clip-rule="evenodd" d="M233.947 90.9726L253.605 76.7582L272.943 90.9726C279.416 95.7639 283.332 103.35 283.332 111.336V176.978H223.478V111.416C223.478 103.35 227.314 95.6841 233.947 90.9726Z" fill="white"/></mask><g mask="url(#mask17)"><path d="M273.822 117.245C266.63 118.443 261.036 120.519 257.121 123.634" stroke="#C6775C" stroke-width="13.4045"/></g><path fill-rule="evenodd" clip-rule="evenodd" d="M230.951 122.537H274.183C285.37 122.537 294.48 131.641 294.48 142.821C294.48 154.001 285.37 163.104 274.183 163.104H230.951C219.764 163.104 210.654 154.001 210.654 142.821C210.654 131.641 219.764 122.537 230.951 122.537Z" fill="#3D3D3D"/><path d="M244.616 124.933C242.298 121.579 237.743 120.701 234.387 123.016C231.031 125.332 230.152 129.884 232.469 133.238C236.944 139.866 243.497 143.06 251.089 142.262C255.164 141.862 258.121 138.189 257.641 134.116C257.242 130.044 253.566 127.089 249.49 127.568C247.413 127.808 246.134 127.089 244.616 124.933Z" fill="white" stroke="#3D3D3D" stroke-width="6.0089"/><path fill-rule="evenodd" clip-rule="evenodd" d="M249.57 117.746H255.484C257.801 117.746 259.719 119.662 259.719 121.978C259.719 124.294 257.801 126.211 255.484 126.211H249.57C247.253 126.211 245.335 124.294 245.335 121.978C245.335 119.583 247.253 117.746 249.57 117.746Z" fill="#C6775C"/><path fill-rule="evenodd" clip-rule="evenodd" d="M222.241 174.044H284.651C286.249 174.044 287.608 175.402 287.608 176.999V179.555C287.608 181.152 286.249 182.509 284.651 182.509H222.241C220.643 182.509 219.284 181.152 219.284 179.555V176.999C219.284 175.402 220.563 174.044 222.241 174.044Z" fill="#D83867"/></g><g clip-path="url(#clip3)"><path d="M631.144 95.8365C613.742 95.8365 599.636 109.926 599.636 127.307C599.636 144.687 613.742 158.777 631.144 158.777C648.546 158.777 662.652 144.687 662.652 127.307C662.652 109.926 648.546 95.8365 631.144 95.8365Z" fill="#FF9600"/><path fill-rule="evenodd" clip-rule="evenodd" d="M626.346 91.4801L645.172 116.887L615.509 106.415L620.919 92.2925C621.546 90.6573 623.367 89.9081 624.928 90.5083C625.476 90.634 626.014 91.0113 626.346 91.4801Z" fill="#FF9600"/><path fill-rule="evenodd" clip-rule="evenodd" d="M657.126 101.697L626.166 107.957L655.204 120.06L660.616 105.938C661.243 104.303 660.39 102.525 658.829 101.925C658.263 101.622 657.686 101.571 657.126 101.697Z" fill="#FF9600"/><path fill-rule="evenodd" clip-rule="evenodd" d="M634.749 104.009C633.56 103.552 632.149 104.118 631.664 105.383L630.268 109.026C629.813 110.216 630.38 111.629 631.644 112.115C632.833 112.572 634.244 112.006 634.728 110.741L636.124 107.098C636.58 105.908 636.013 104.495 634.749 104.009Z" fill="#BE7000"/><path fill-rule="evenodd" clip-rule="evenodd" d="M641.212 106.493C640.022 106.036 638.611 106.602 638.127 107.866L636.731 111.51C636.275 112.7 636.843 114.113 638.106 114.599C639.295 115.056 640.706 114.489 641.191 113.225L642.587 109.582C643.043 108.392 642.475 106.979 641.212 106.493Z" fill="#BE7000"/><path fill-rule="evenodd" clip-rule="evenodd" d="M637.727 116.253L629.925 113.252C625.912 111.709 621.464 113.751 619.955 117.691C618.445 121.631 620.461 126.159 624.399 127.674L632.201 130.674C636.214 132.218 640.662 130.176 642.171 126.236C643.681 122.296 641.739 117.796 637.727 116.253Z" fill="white"/><path opacity="0.7214" fill-rule="evenodd" clip-rule="evenodd" d="M630.796 119.213L629.216 116.217C628.775 115.365 629.1 114.296 629.979 113.781C630.419 113.524 630.95 113.472 631.47 113.672L636.225 115.501C637.117 115.844 637.575 116.873 637.234 117.765C637.063 118.212 636.64 118.646 636.155 118.801L632.98 119.968C632.157 120.334 631.266 119.991 630.796 119.213Z" fill="#FFAADE"/><path fill-rule="evenodd" clip-rule="evenodd" d="M585.761 129.109H583.294C539.373 129.109 503.807 164.722 503.807 208.701V271.88C503.807 280.963 511.127 288.293 520.198 288.293H648.857C657.928 288.293 665.248 280.963 665.248 271.88V208.701C665.327 164.722 629.682 129.109 585.761 129.109Z" fill="#2B70C9"/><mask id="mask18" mask-type="alpha" maskUnits="userSpaceOnUse" x="503" y="129" width="163" height="160"><path fill-rule="evenodd" clip-rule="evenodd" d="M585.761 129.109H583.294C539.373 129.109 503.807 164.722 503.807 208.701V271.88C503.807 280.963 511.127 288.293 520.198 288.293H648.857C657.928 288.293 665.248 280.963 665.248 271.88V208.701C665.327 164.722 629.682 129.109 585.761 129.109Z" fill="white"/></mask><g mask="url(#mask18)"><path fill-rule="evenodd" clip-rule="evenodd" d="M593.081 196.75C587.352 196.75 582.737 201.371 582.737 207.107V211.41C582.737 217.146 587.352 221.767 593.081 221.767C598.81 221.767 603.425 217.146 603.425 211.41V207.107C603.504 201.451 598.81 196.75 593.081 196.75Z" fill="white"/></g><mask id="mask19" mask-type="alpha" maskUnits="userSpaceOnUse" x="503" y="129" width="163" height="160"><path fill-rule="evenodd" clip-rule="evenodd" d="M585.761 129.109H583.294C539.373 129.109 503.807 164.722 503.807 208.701V271.88C503.807 280.963 511.127 288.293 520.198 288.293H648.857C657.928 288.293 665.248 280.963 665.248 271.88V208.701C665.327 164.722 629.682 129.109 585.761 129.109Z" fill="white"/></mask><g mask="url(#mask19)"><path fill-rule="evenodd" clip-rule="evenodd" d="M573.985 196.75C568.256 196.75 563.641 201.371 563.641 207.107V211.41C563.641 217.146 568.256 221.767 573.985 221.767C579.714 221.767 584.329 217.146 584.329 211.41V207.107C584.329 201.451 579.714 196.75 573.985 196.75Z" fill="white"/></g><mask id="mask20" mask-type="alpha" maskUnits="userSpaceOnUse" x="503" y="129" width="163" height="160"><path fill-rule="evenodd" clip-rule="evenodd" d="M585.761 129.109H583.294C539.373 129.109 503.807 164.722 503.807 208.701V271.88C503.807 280.963 511.127 288.293 520.198 288.293H648.857C657.928 288.293 665.248 280.963 665.248 271.88V208.701C665.327 164.722 629.682 129.109 585.761 129.109Z" fill="white"/></mask><g mask="url(#mask20)"><path fill-rule="evenodd" clip-rule="evenodd" d="M556.321 124.966H486.541C482.404 124.966 479.062 128.313 479.062 132.456V262.16C479.062 266.303 482.404 269.65 486.541 269.65H556.401C560.538 269.65 563.88 266.303 563.88 262.16V132.456C563.88 128.313 560.459 124.966 556.321 124.966Z" fill="#1CB0F6"/></g><mask id="mask21" mask-type="alpha" maskUnits="userSpaceOnUse" x="503" y="129" width="163" height="160"><path fill-rule="evenodd" clip-rule="evenodd" d="M585.761 129.109H583.294C539.373 129.109 503.807 164.722 503.807 208.701V271.88C503.807 280.963 511.127 288.293 520.198 288.293H648.857C657.928 288.293 665.248 280.963 665.248 271.88V208.701C665.327 164.722 629.682 129.109 585.761 129.109Z" fill="white"/></mask><g mask="url(#mask21)"><path fill-rule="evenodd" clip-rule="evenodd" d="M684.503 124.966H610.745C606.607 124.966 603.266 128.313 603.266 132.456V262.16C603.266 266.303 606.607 269.65 610.745 269.65H684.503C688.641 269.65 691.982 266.303 691.982 262.16V132.456C691.982 128.313 688.641 124.966 684.503 124.966Z" fill="#1CB0F6"/></g><path fill-rule="evenodd" clip-rule="evenodd" d="M620.577 138.193L620.258 141.3C619.861 145.045 622.566 148.471 626.385 148.869C630.125 149.267 633.546 146.558 633.944 142.734L634.262 139.627C634.66 135.883 631.955 132.457 628.136 132.058C624.316 131.74 620.975 134.448 620.577 138.193Z" fill="#FF9600"/><path fill-rule="evenodd" clip-rule="evenodd" d="M595.115 115.805H572.757C557.958 115.805 546.023 127.836 546.023 142.575C546.023 157.394 558.037 169.345 572.757 169.345H595.115C609.915 169.345 621.85 157.314 621.85 142.575C621.85 127.756 609.915 115.805 595.115 115.805Z" fill="#4C4C4C"/><mask id="mask22" mask-type="alpha" maskUnits="userSpaceOnUse" x="546" y="115" width="76" height="55"><path fill-rule="evenodd" clip-rule="evenodd" d="M595.115 115.805H572.757C557.958 115.805 546.023 127.836 546.023 142.575C546.023 157.394 558.037 169.345 572.757 169.345H595.115C609.915 169.345 621.85 157.314 621.85 142.575C621.85 127.756 609.915 115.805 595.115 115.805Z" fill="white"/></mask><g mask="url(#mask22)"><path d="M532.026 148.991L618.708 199.104L633.547 173.369L546.865 123.256L532.026 148.991Z" fill="#D2E4E8"/></g><path fill-rule="evenodd" clip-rule="evenodd" d="M591.545 138.061H576.348C565.209 138.061 556.138 147.143 556.138 158.297V173.355C556.138 188.652 568.55 201.081 583.827 201.081H584.066C599.343 201.081 611.755 188.652 611.755 173.355V158.297C611.755 147.143 602.685 138.061 591.545 138.061Z" fill="#FFC6B7"/><path fill-rule="evenodd" clip-rule="evenodd" d="M610.96 163.157H556.616C550.807 163.157 546.033 167.858 546.033 173.753V198.372C546.033 204.188 550.728 208.968 556.616 208.968H610.96C616.768 208.968 621.542 204.268 621.542 198.372V173.753C621.462 167.858 616.768 163.157 610.96 163.157Z" fill="#FFC6B7"/><path opacity="0.3189" d="M588.681 169.61L596.081 198.93" stroke="#D25A42" stroke-width="3.5386" stroke-linecap="round" stroke-linejoin="round"/><path opacity="0.3189" d="M579.292 169.61L571.892 198.93" stroke="#D25A42" stroke-width="3.5386" stroke-linecap="round" stroke-linejoin="round"/><path d="M587.646 190.564C586.692 191.122 585.419 191.44 584.066 191.44C582.952 191.44 581.918 191.122 581.042 190.723" stroke="#F19882" stroke-width="3.5386" stroke-linecap="round" stroke-linejoin="round"/><path fill-rule="evenodd" clip-rule="evenodd" d="M583.986 152.561C582.236 152.561 580.724 153.836 580.406 155.509L578.098 168.097C577.462 171.363 579.61 174.55 582.952 175.188C583.35 175.267 583.668 175.267 584.066 175.267C587.408 175.267 590.113 172.558 590.113 169.212C590.113 168.814 590.113 168.495 590.033 168.097L587.726 155.509C587.249 153.836 585.737 152.561 583.986 152.561Z" fill="#E47A65"/><path opacity="0.3189" d="M598.388 164.671H590.988C593.057 168.336 595.524 170.168 598.388 170.168" stroke="#D25A42" stroke-width="3.5386" stroke-linecap="round" stroke-linejoin="round"/><path opacity="0.3189" d="M568.71 164.671H576.109C574.041 168.336 571.574 170.168 568.71 170.168" stroke="#D25A42" stroke-width="3.5386" stroke-linecap="round" stroke-linejoin="round"/><path d="M591.061 81.1875C583.298 76.6994 573.371 79.3626 568.889 87.1361C564.406 94.9095 567.066 104.849 574.829 109.338C582.592 113.826 592.519 111.162 597.002 103.389C601.484 95.6156 598.824 85.6756 591.061 81.1875Z" fill="#4C4C4C"/><path fill-rule="evenodd" clip-rule="evenodd" d="M592.5 149.055L594.808 149.215C597.672 149.454 599.741 151.923 599.581 154.792V154.871L599.263 157.978L591.784 157.341C589.477 157.182 587.806 155.19 587.965 152.88V152.8C588.124 150.569 590.113 148.816 592.5 149.055Z" fill="#4C4C4C"/><path fill-rule="evenodd" clip-rule="evenodd" d="M575.473 149.055L573.165 149.215C570.301 149.454 568.232 151.923 568.391 154.792V154.871L568.71 157.978L576.189 157.341C578.496 157.182 580.167 155.19 580.008 152.88V152.8C579.769 150.569 577.78 148.816 575.473 149.055Z" fill="#4C4C4C"/><path fill-rule="evenodd" clip-rule="evenodd" d="M562.546 233.79L556.101 240.244C552.282 244.068 552.282 250.282 556.101 254.106L562.546 260.56C566.365 264.384 572.571 264.384 576.391 260.56L582.836 254.106C586.655 250.282 586.655 244.068 582.836 240.244L576.391 233.79C572.571 229.966 566.365 229.966 562.546 233.79Z" fill="#FFC6B7"/><path fill-rule="evenodd" clip-rule="evenodd" d="M590.872 233.79L584.427 240.244C580.608 244.068 580.608 250.282 584.427 254.106L590.872 260.56C594.691 264.384 600.897 264.384 604.717 260.56L611.161 254.106C614.981 250.282 614.981 244.068 611.161 240.244L604.717 233.79C600.897 229.966 594.691 229.966 590.872 233.79Z" fill="#FFC6B7"/><path fill-rule="evenodd" clip-rule="evenodd" d="M640.399 149.613L639.842 155.031C639.444 158.775 642.15 162.201 645.969 162.599C649.709 162.998 653.13 160.289 653.528 156.465L654.085 151.047C654.483 147.303 651.777 143.877 647.958 143.478C644.139 143.08 640.797 145.789 640.399 149.613Z" fill="#FF9600"/></g></g><defs><clipPath id="clip0"><rect width="109" height="262" fill="white" transform="translate(370 63)"/></clipPath><clipPath id="clip1"><rect width="89" height="194" fill="white" transform="translate(46 101)"/></clipPath><clipPath id="clip2"><rect width="179" height="333" fill="white" transform="translate(162 41)"/></clipPath><clipPath id="clip3"><rect width="213" height="223" fill="white" transform="translate(479 79)"/></clipPath></defs></svg>