<svg width="271" height="271" viewBox="0 0 271 271" fill="none" xmlns="http://www.w3.org/2000/svg"><path d="M137.624 177.638C137.624 179.616 139.228 181.219 141.206 181.219H156.627C158.605 181.219 160.208 179.616 160.208 177.638C160.208 175.659 158.605 174.056 156.627 174.056H141.206C139.228 174.056 137.624 175.659 137.624 177.638Z" fill="#8D8D8D"/><path fill-rule="evenodd" clip-rule="evenodd" d="M69.7819 188.718C57.9449 188.718 51.6378 196.031 51.6378 201.44C51.6378 206.848 57.9449 214.161 69.7819 214.161C81.619 214.161 87.9261 206.848 87.9261 201.44C87.9261 196.031 81.619 188.718 69.7819 188.718ZM35.8721 201.44C35.8721 184.089 52.8703 172.952 69.7819 172.952C86.6935 172.952 103.692 184.089 103.692 201.44C103.692 218.79 86.6935 229.927 69.7819 229.927C52.8703 229.927 35.8721 218.79 35.8721 201.44Z" fill="white"/><path fill-rule="evenodd" clip-rule="evenodd" d="M206.202 188.718C194.365 188.718 188.058 196.031 188.058 201.44C188.058 206.848 194.365 214.161 206.202 214.161C218.039 214.161 224.346 206.848 224.346 201.44C224.346 196.031 218.039 188.718 206.202 188.718ZM172.292 201.44C172.292 184.089 189.29 172.952 206.202 172.952C223.113 172.952 240.112 184.089 240.112 201.44C240.112 218.79 223.113 229.927 206.202 229.927C189.29 229.927 172.292 218.79 172.292 201.44Z" fill="white"/><path fill-rule="evenodd" clip-rule="evenodd" d="M69.7824 180.768C55.1029 180.768 44.7137 190.795 44.7137 201.44C44.7137 212.084 55.1029 222.112 69.7824 222.112C84.4618 222.112 94.851 212.084 94.851 201.44C94.851 190.795 84.4618 180.768 69.7824 180.768ZM33.6777 201.44C33.6777 183.156 50.6767 169.732 69.7824 169.732C88.888 169.732 105.887 183.156 105.887 201.44C105.887 219.724 88.888 233.148 69.7824 233.148C50.6767 233.148 33.6777 219.724 33.6777 201.44Z" fill="#8D8D8D"/><path fill-rule="evenodd" clip-rule="evenodd" d="M69.7823 180.768C61.6393 180.768 54.5728 183.971 50.0648 188.702C47.9626 190.908 44.4698 190.993 42.2635 188.891C40.0571 186.789 39.9726 183.296 42.0747 181.089C48.7842 174.047 58.7961 169.732 69.7823 169.732C87.9477 169.732 104.094 181.79 105.752 198.677C106.05 201.71 103.832 204.41 100.799 204.708C97.7665 205.006 95.0664 202.788 94.7686 199.755C93.7907 189.796 83.6526 180.768 69.7823 180.768Z" fill="#A6A6A6"/><path fill-rule="evenodd" clip-rule="evenodd" d="M206.202 180.768C191.523 180.768 181.134 190.795 181.134 201.44C181.134 212.084 191.523 222.112 206.202 222.112C220.882 222.112 231.271 212.084 231.271 201.44C231.271 190.795 220.882 180.768 206.202 180.768ZM170.098 201.44C170.098 183.156 187.097 169.732 206.202 169.732C225.308 169.732 242.307 183.156 242.307 201.44C242.307 219.724 225.308 233.148 206.202 233.148C187.097 233.148 170.098 219.724 170.098 201.44Z" fill="#8D8D8D"/><path fill-rule="evenodd" clip-rule="evenodd" d="M200.683 175.25C200.683 172.202 203.153 169.732 206.201 169.732C225.306 169.732 242.305 183.156 242.305 201.44C242.305 210.018 238.444 217.668 232.436 223.242C230.202 225.315 226.711 225.184 224.638 222.95C222.565 220.716 222.696 217.225 224.93 215.152C228.984 211.391 231.269 206.566 231.269 201.44C231.269 190.795 220.88 180.768 206.201 180.768C203.153 180.768 200.683 178.297 200.683 175.25Z" fill="#A6A6A6"/><path fill-rule="evenodd" clip-rule="evenodd" d="M154.193 121.98C157.155 124.752 158.324 128.944 157.224 132.849L150.702 155.985C149.076 161.754 143.081 165.112 137.312 163.486C131.544 161.86 128.185 155.865 129.811 150.096L130.642 147.151L127.128 148.399C121.48 150.405 115.275 147.452 113.269 141.805C111.264 136.157 114.216 129.952 119.864 127.946L143.147 119.678C146.97 118.32 151.23 119.208 154.193 121.98Z" fill="white"/><path d="M136.156 168.952C136.156 171.871 138.522 174.237 141.441 174.237H154.184C157.102 174.237 159.469 171.871 159.469 168.952C159.469 166.034 157.102 163.667 154.184 163.667H141.441C138.522 163.667 136.156 166.034 136.156 168.952Z" fill="#D4D4D4"/><path fill-rule="evenodd" clip-rule="evenodd" d="M161.819 111.732C159.29 113.687 155.415 115.391 150.183 114.475C145.997 113.743 143.763 114.472 142.662 115.115C142.096 115.445 141.762 115.789 141.583 116.013C141.493 116.126 141.44 116.211 141.418 116.25C141.409 116.265 141.405 116.274 141.405 116.274C141.405 116.274 141.405 116.273 141.406 116.272C141.407 116.269 141.41 116.263 141.415 116.252L141.423 116.234L141.428 116.223L141.43 116.217L141.432 116.213C141.433 116.212 141.433 116.21 139.516 115.404C137.598 114.599 137.599 114.597 137.6 114.596L137.601 114.592L137.604 114.584L137.612 114.568C137.617 114.557 137.622 114.544 137.628 114.53C137.641 114.503 137.656 114.471 137.674 114.435C137.709 114.363 137.755 114.274 137.814 114.172C137.932 113.968 138.101 113.708 138.333 113.417C138.799 112.834 139.514 112.135 140.566 111.521C142.701 110.276 145.98 109.517 150.9 110.378C154.772 111.056 157.489 109.822 159.274 108.441C160.185 107.738 160.858 106.988 161.301 106.418C161.521 106.135 161.681 105.9 161.781 105.745C161.83 105.668 161.865 105.611 161.884 105.578C161.894 105.561 161.9 105.551 161.902 105.547L161.901 105.549L161.899 105.554C161.898 105.555 161.898 105.555 163.723 106.552C165.549 107.549 165.548 107.549 165.547 107.55L165.544 107.557L165.537 107.569L165.52 107.6C165.506 107.624 165.488 107.655 165.466 107.693C165.421 107.769 165.359 107.871 165.28 107.994C165.121 108.241 164.891 108.578 164.586 108.97C163.98 109.75 163.066 110.768 161.819 111.732ZM161.902 105.547C161.903 105.545 161.903 105.545 161.902 105.547V105.547Z" fill="#A6A6A6"/><path fill-rule="evenodd" clip-rule="evenodd" d="M145.143 99.7162C143.859 99.0364 142.155 98.6137 139.372 98.9922L138.812 94.8706C142.314 94.3942 144.918 94.8909 147.089 96.0398C148.907 97.0019 150.329 98.3948 151.559 99.6002C151.719 99.7564 151.875 99.9095 152.028 100.058C153.426 101.411 154.782 102.609 156.703 103.457C158.613 104.3 161.24 104.863 165.211 104.628L165.457 108.78C160.968 109.046 157.656 108.425 155.023 107.262C152.401 106.104 150.611 104.475 149.135 103.047C148.97 102.887 148.811 102.732 148.656 102.581C147.369 101.327 146.394 100.378 145.143 99.7162Z" fill="#A6A6A6"/><path fill-rule="evenodd" clip-rule="evenodd" d="M163.769 105.225C158.76 109.663 149.666 110.226 142.808 101.729L139.571 104.342C147.845 114.593 159.656 114.427 166.528 108.338L163.769 105.225Z" fill="#A6A6A6"/><path d="M65.4629 201.341C65.4629 198.474 67.7869 196.15 70.6537 196.15H137.401C140.268 196.15 142.592 198.474 142.592 201.341C142.592 204.208 140.268 206.532 137.401 206.532H70.6537C67.7869 206.532 65.4629 204.208 65.4629 201.341Z" fill="#D4D4D4"/><path d="M120.002 163.338C120.002 160.471 122.326 158.147 125.193 158.147H172.525C175.392 158.147 177.716 160.471 177.716 163.338C177.716 166.205 175.392 168.529 172.525 168.529H125.193C122.326 168.529 120.002 166.205 120.002 163.338Z" fill="#BFBFBF"/><path d="M66.6499 204.316C64.9135 202.035 65.3551 198.778 67.6362 197.042L117.58 159.025C119.861 157.289 123.118 157.73 124.854 160.011C126.59 162.293 126.149 165.549 123.868 167.286L73.9243 205.303C71.6431 207.039 68.3863 206.598 66.6499 204.316Z" fill="#D4D4D4"/><path d="M209.511 205.57C211.67 203.684 211.891 200.405 210.005 198.246L171.727 154.437C169.841 152.278 166.562 152.057 164.403 153.943C162.244 155.83 162.023 159.109 163.909 161.268L202.187 205.077C204.073 207.235 207.352 207.456 209.511 205.57Z" fill="#D4D4D4"/><path d="M128.78 204.869C126.807 202.789 126.893 199.503 128.973 197.53L168.977 159.573C171.057 157.6 174.343 157.686 176.316 159.766C178.289 161.846 178.203 165.131 176.123 167.105L136.118 205.061C134.039 207.035 130.753 206.948 128.78 204.869Z" fill="#D4D4D4"/><path d="M107.324 179.88H90.1836L117.58 159.026C119.861 157.289 123.118 157.731 124.854 160.012C126.591 162.293 126.149 165.55 123.868 167.286L107.324 179.88Z" fill="#BFBFBF"/><path d="M143.431 201.341C143.431 206.889 138.373 211.387 132.135 211.387C125.896 211.387 120.839 206.889 120.839 201.341C120.839 195.793 125.896 191.295 132.135 191.295C138.373 191.295 143.431 195.793 143.431 201.341Z" fill="#A6A6A6"/><path d="M95.5303 159.277C95.5303 152.809 100.774 147.565 107.243 147.565H120.998C127.467 147.565 132.711 152.809 132.711 159.277C132.711 165.746 127.467 170.99 120.998 170.99H107.243C100.774 170.99 95.5303 165.746 95.5303 159.277Z" fill="#8D8D8D"/><path d="M168.361 95.7642C171.458 95.7642 173.969 98.2749 173.969 101.372L173.969 119.699C173.969 122.796 171.458 125.307 168.361 125.307C165.264 125.307 162.753 122.796 162.753 119.699L162.753 101.372C162.753 98.2749 165.264 95.7642 168.361 95.7642Z" fill="#A6A6A6"/><path d="M168.361 114.093C171.458 114.093 173.969 116.604 173.969 119.701C173.969 122.798 171.458 125.309 168.361 125.309C165.264 125.309 162.753 122.798 162.753 119.701C162.753 116.604 165.264 114.093 168.361 114.093Z" fill="#8D8D8D"/><path d="M133.871 132.719C136.879 143.948 129.442 155.696 117.258 158.961C105.075 162.225 92.7596 155.769 89.751 144.541C86.7424 133.313 94.18 121.564 106.363 118.3C118.547 115.035 130.862 121.491 133.871 132.719Z" fill="white"/><path d="M137.415 216.013C138.231 217.815 140.353 218.615 142.155 217.8L156.205 211.445C158.008 210.629 158.808 208.508 157.993 206.705C157.177 204.903 155.055 204.103 153.253 204.918L139.203 211.274C137.4 212.089 136.6 214.211 137.415 216.013Z" fill="#A6A6A6"/><path fill-rule="evenodd" clip-rule="evenodd" d="M125.851 187.301C120.933 172.923 112.919 160.914 105.244 156.174C100.145 153.024 98.565 146.337 101.715 141.238C104.864 136.139 111.551 134.558 116.651 137.708C130.615 146.334 140.822 164.009 146.387 180.276C148.327 185.946 145.303 192.116 139.632 194.056C133.961 195.996 127.791 192.972 125.851 187.301Z" fill="white"/><path d="M118.242 157.418C116.186 154.836 112.629 153.9 109.377 153.335C106.038 152.756 102.283 151.32 100.332 149.195L100.332 149.196C98.497 147.229 97.1207 144.834 96.3901 142.107C94.3874 134.633 97.8303 126.888 104.392 122.547L104.392 118.917C93.3913 122.86 86.9084 133.933 89.751 144.542C92.1396 153.457 100.395 159.363 109.793 159.785C115.956 165.738 121.901 175.756 125.851 187.302C127.485 192.077 132.118 194.976 136.926 194.614C134.147 185.932 130.209 176.493 125.755 168.485C123.633 164.669 120.793 160.622 118.242 157.418Z" fill="#D4D4D4"/><path d="M120.303 120.244C121.483 124.779 118.083 131.745 109.078 134.088C99.4669 136.589 93.7096 132.007 92.5295 127.472C91.3493 122.938 97.1353 119.662 104.805 117.666C112.474 115.67 119.123 115.71 120.303 120.244Z" fill="#E5E5E5"/><path d="M104.079 122.76L107.79 121.498L112.012 135.483L108.813 136.482L104.079 122.76Z" fill="white"/><path d="M114.959 120.277L117.172 117.674L120.035 128.737L117.953 130.429L114.959 120.277Z" fill="white"/><path d="M184.394 143.765C183.778 143.211 183.161 142.654 182.554 142.102C182.559 140.292 182.904 138.559 183.529 136.966C183.704 136.52 184.208 136.3 184.654 136.475C185.101 136.65 185.321 137.154 185.146 137.6C184.594 139.008 184.29 140.541 184.29 142.147C184.29 142.695 184.325 143.235 184.394 143.765Z" fill="#4EB800"/><path d="M96.5784 132.81C94.5876 131.523 93.2706 129.755 92.6729 127.954C95.355 123.949 99.4101 120.702 104.392 118.916V122.546C100.588 125.062 97.8329 128.722 96.5784 132.81Z" fill="#BFBFBF"/><path fill-rule="evenodd" clip-rule="evenodd" d="M116.293 101.059C123.044 79.9589 127.731 67.3191 138.304 42.6205C139.555 39.7002 138.201 36.3195 135.28 35.0694C132.36 33.8193 128.98 35.1732 127.729 38.0934C117.027 63.0939 112.209 76.0751 105.337 97.5542C104.369 100.58 106.037 103.817 109.062 104.785C112.088 105.753 115.325 104.085 116.293 101.059Z" fill="#A6A6A6"/><path d="M120.189 113.115C122.008 119.903 116.27 127.338 107.372 129.722C98.4751 132.106 89.7879 128.536 87.9691 121.748C86.1502 114.96 91.8885 107.525 100.786 105.141C109.683 102.757 118.37 106.327 120.189 113.115Z" fill="#A6A6A6"/><path d="M92.582 111.123C92.916 110.632 93.0256 110.011 92.888 109.433L92.3512 107.179C92.0537 105.929 90.7413 105.216 89.5116 105.587C81.0635 108.136 74.5207 107.858 65.7936 105.984C63.4001 105.47 61.1466 107.383 61.358 109.822L61.761 114.473C61.8464 115.457 61.7441 116.449 61.4597 117.396C59.9487 122.425 63.1759 127.522 68.3734 126.775C75.4554 125.758 85.0811 122.16 92.582 111.123Z" fill="#D4D4D4"/><path d="M117.579 101.845C118.671 107.064 112.25 112.824 103.238 114.709C94.2263 116.595 86.0352 113.893 84.9432 108.675C83.8511 103.456 90.2716 97.6963 99.2837 95.8105C108.296 93.9247 116.487 96.6266 117.579 101.845Z" fill="white"/><path d="M106.979 98.5191C103.239 100.473 99.8293 105.318 101.491 109.119C102.474 111.367 107.007 113.604 111.744 111.367C109.399 112.846 106.488 114.029 103.239 114.709C94.2274 116.595 86.0363 113.893 84.9443 108.674C83.8522 103.455 90.2727 97.6959 99.2848 95.8101L106.979 98.5191Z" fill="white"/><path d="M130.829 71.1826C130.829 91.5624 114.308 108.083 93.9282 108.083C73.5484 108.083 57.0273 91.5624 57.0273 71.1826C57.0273 50.8028 73.5484 34.2817 93.9282 34.2817C114.308 34.2817 130.829 50.8028 130.829 71.1826Z" fill="white"/><path d="M121.917 95.231C115.15 103.1 105.121 108.083 93.9282 108.083C73.5484 108.083 57.0273 91.5624 57.0273 71.1826C57.0273 50.8028 73.5484 34.2817 93.9282 34.2817C105.121 34.2817 115.15 39.2651 121.917 47.1341C116.99 41.6456 110.374 38.2867 103.1 38.2867C87.869 38.2867 75.5219 53.0147 75.5219 71.1826C75.5219 89.3505 87.869 104.079 103.1 104.079C110.374 104.079 116.99 100.72 121.917 95.231Z" fill="white"/><path d="M99.3203 107.692C102.191 106.91 105.002 105.752 107.689 104.201C115.013 99.9723 120.265 93.4841 123.111 86.0386C123.695 86.3587 124.215 86.7656 124.659 87.2619C124.676 87.2807 124.692 87.2995 124.709 87.3185C122.445 92.9715 118.848 98.0812 114.046 102.122C109.688 104.962 104.692 106.905 99.3203 107.692Z" fill="#E5E5E5"/><path d="M128.764 59.6104C134.685 75.1194 127.065 92.4344 111.743 98.2844C96.4211 104.134 79.2 96.3042 73.2785 80.7951C67.357 65.286 74.9774 47.971 90.2992 42.121C105.621 36.271 122.842 44.1013 128.764 59.6104Z" fill="#D5D5D5"/><path d="M83.4815 94.3023C79.0222 90.9876 75.4141 86.3911 73.2773 80.7946C67.399 65.3987 74.8657 48.2232 89.9638 42.2505C81.3618 47.8192 75.5215 58.6872 75.5215 71.1822C75.5215 80.1948 78.5599 88.3608 83.4815 94.3023Z" fill="#BFBFBF"/><path d="M114.557 61.359C115.723 62.5255 115.835 64.6862 114.572 65.9497C113.308 67.2132 111.148 67.1012 109.981 65.9346C108.814 64.768 107.994 59.5629 108.09 59.4676C108.185 59.3722 113.39 60.1924 114.557 61.359Z" fill="#959595"/><path fill-rule="evenodd" clip-rule="evenodd" d="M114.123 58.0935C115.066 57.4483 116.425 56.7422 118.114 56.4634C120.227 56.1148 121.865 56.4125 122.957 56.7804C123.506 56.9651 123.92 57.1685 124.19 57.3197C124.324 57.3953 124.422 57.4576 124.482 57.4976C124.512 57.5176 124.532 57.532 124.543 57.5396L124.551 57.5456C125.025 57.9068 125.702 57.8181 126.067 57.3457C126.433 56.8714 126.346 56.1899 125.872 55.8235L125.208 56.6823C125.872 55.8235 125.871 55.8231 125.871 55.8228L125.87 55.8221L125.868 55.8205L125.863 55.8167L125.85 55.807C125.84 55.7996 125.827 55.7903 125.812 55.7792C125.781 55.7572 125.74 55.7282 125.689 55.6936C125.585 55.6244 125.439 55.5324 125.253 55.4276C124.88 55.218 124.342 54.9563 123.65 54.7233C122.261 54.256 120.264 53.9089 117.761 54.3219C115.678 54.6658 114.024 55.5314 112.897 56.3023C112.332 56.6888 111.894 57.0558 111.592 57.3302C111.441 57.4676 111.324 57.5825 111.242 57.6657C111.201 57.7074 111.169 57.7412 111.146 57.7661L111.118 57.7967L111.109 57.8066L111.105 57.8103L111.104 57.8117C111.104 57.812 111.103 57.813 111.899 58.5242L111.103 57.813C110.704 58.2598 110.742 58.9459 111.189 59.3453C111.635 59.7445 112.321 59.7063 112.72 59.2601L112.72 59.2612L112.731 59.2493C112.742 59.237 112.762 59.2161 112.79 59.1876C112.846 59.1306 112.934 59.0436 113.054 58.9349C113.293 58.7173 113.653 58.4151 114.123 58.0935Z" fill="#959595"/><path fill-rule="evenodd" clip-rule="evenodd" d="M101.851 57.9149C100.918 57.0134 99.5341 55.953 97.716 55.2769C94.0875 53.9276 90.778 54.7425 88.589 56.0829C88.0169 56.4332 87.2692 56.2534 86.9189 55.6814C86.5686 55.1093 86.7484 54.3616 87.3204 54.0113C90.0402 52.3459 94.1268 51.3506 98.5626 53.0001C100.777 53.8234 102.437 55.1034 103.539 56.1675C104.091 56.7012 104.51 57.1863 104.793 57.5432C104.935 57.7218 105.044 57.869 105.12 57.975C105.157 58.028 105.187 58.0707 105.208 58.102L105.234 58.1402L105.242 58.1526L105.245 58.1571L105.246 58.1589C105.246 58.1592 105.247 58.1604 104.242 58.8093L105.247 58.1604C105.611 58.7238 105.449 59.4757 104.885 59.8396C104.323 60.2029 103.573 60.0424 103.208 59.4813C103.208 59.4808 103.207 59.4803 103.207 59.4797L103.197 59.4645C103.186 59.4485 103.167 59.4214 103.141 59.3845C103.088 59.3106 103.005 59.1975 102.892 59.0545C102.664 58.768 102.316 58.364 101.851 57.9149Z" fill="#959595"/><path d="M115.657 74.9883C116.021 73.04 114.616 71.3297 112.687 70.8759C108.432 69.8752 104.4 68.2177 100.525 65.2146C99.1428 64.1429 97.1264 64.3708 96.3269 65.9267C94.1237 70.2141 90.9091 78.4152 94.4836 84.6726C96.726 88.5979 100.764 91.1781 105.752 89.3888C112.439 86.99 114.821 79.4643 115.657 74.9883Z" fill="#959595"/><path d="M94.7637 70.7907C96.7405 71.5222 98.8569 71.1415 100.427 69.9647C100.852 71.8798 102.211 73.5463 104.188 74.2777C107.283 75.4229 110.72 73.8421 111.865 70.7473C111.874 70.7249 111.882 70.7026 111.89 70.6802C107.928 69.6626 104.158 68.0299 100.526 65.215C100.514 65.2059 100.502 65.1969 100.491 65.188C100.314 65.0852 100.137 64.9812 99.959 64.876C99.92 64.853 99.8806 64.8307 99.8411 64.8091C98.5449 64.2465 97.0024 64.6134 96.3273 65.9271C95.6763 67.194 94.9369 68.8027 94.3105 70.6019C94.4577 70.6703 94.6088 70.7334 94.7637 70.7907Z" fill="white"/><path d="M104.245 89.8058C104.448 89.0792 104.556 88.3131 104.556 87.5216C104.556 82.8433 100.764 79.0508 96.0854 79.0508C94.9774 79.0508 93.9192 79.2635 92.9492 79.6503C93.1112 81.3856 93.581 83.0913 94.4844 84.6728C96.4961 88.1945 99.953 90.6334 104.245 89.8058Z" fill="#BFBFBF"/><path fill-rule="evenodd" clip-rule="evenodd" d="M58.7085 82.0656C56.3035 79.2317 54.185 76.7355 52.5128 74.729C50.4791 72.2888 50.8087 68.662 53.2489 66.6283C55.6891 64.5946 59.3159 64.9241 61.3495 67.3644C62.8761 69.196 64.9303 71.6173 67.3001 74.4104C71.4211 79.2676 76.4963 85.2494 81.4095 91.2109C89.1496 100.602 97.074 110.637 101.117 117.335C102.758 120.055 101.883 123.59 99.1638 125.232C96.4441 126.873 92.9088 125.999 91.2676 123.279C87.7328 117.421 80.3612 108.026 72.5325 98.527C67.6199 92.5662 62.7579 86.8372 58.7085 82.0656Z" fill="#A6A6A6"/><path d="M78.4654 51.7584C94.3802 56.6406 107.049 47.4448 110.54 41.8546C109.368 41.1052 107.045 39.3286 101.653 38.4495C92.1626 36.902 87.2822 38.3962 79.5736 40.1635C74.3391 41.3636 68.6911 38.4799 67.849 38.7818C66.8687 39.1331 70.4975 49.314 78.4654 51.7584Z" fill="#8D8D8D"/><path d="M89.1858 113.558C87.7348 116.141 87.2315 118.997 87.9683 121.747C89.7871 128.535 98.4742 132.105 107.372 129.721C109.472 129.159 111.396 128.314 113.086 127.264C105.783 129.468 97.3843 127.218 94.9481 121.691C94.0489 119.652 93.6572 116.699 93.6572 116.699L89.1858 113.558Z" fill="#A6A6A6"/><path d="M132.223 136.934C132.223 136.395 131.786 135.958 131.246 135.958C130.707 135.958 130.27 136.395 130.27 136.934C130.27 141.175 129.419 143.884 128.116 146.59L127.837 147.17L128.259 147.655C131.016 150.823 133.567 154.403 135.861 158.149H138.143C135.759 154.148 133.077 150.287 130.149 146.856C131.409 144.1 132.223 141.203 132.223 136.934Z" fill="#E5E5E5"/><path d="M162.787 179.757H147.704L168.977 159.573C171.057 157.6 174.342 157.686 176.315 159.765C178.289 161.845 178.202 165.131 176.123 167.104L162.787 179.757Z" fill="#BFBFBF"/><path d="M167.097 125.164C164.609 124.591 162.753 122.362 162.753 119.699V101.535C162.762 98.4462 165.269 95.9448 168.361 95.9448C168.78 95.9448 169.189 95.9908 169.582 96.0781C168.147 96.4906 167.097 97.8131 167.097 99.3808V125.094C167.097 125.117 167.097 125.141 167.097 125.164Z" fill="#959595"/><path d="M168.361 116.287C170.568 116.287 172.356 118.076 172.356 120.282L172.356 158.871C172.356 161.078 170.568 162.867 168.361 162.867C166.154 162.867 164.365 161.078 164.365 158.871L164.365 120.282C164.365 118.076 166.154 116.287 168.361 116.287Z" fill="#D4D4D4"/><path d="M206.856 194.643H193.069L163.908 161.267C162.022 159.108 162.243 155.829 164.401 153.943C166.56 152.056 169.84 152.277 171.726 154.436L206.856 194.643Z" fill="#BFBFBF"/><path d="M182.203 120.288C182.203 113.97 187.324 108.849 193.642 108.849H221.309C227.626 108.849 232.748 113.97 232.748 120.288V172.896C232.748 179.214 227.626 184.335 221.309 184.335H193.642C187.324 184.335 182.203 179.214 182.203 172.896V120.288Z" fill="#9A9A9A"/><path d="M182.203 170.938V176.697C182.203 180.916 185.623 184.336 189.842 184.336H225.109C229.328 184.336 232.748 180.916 232.748 176.697V170.938C232.748 175.157 229.328 178.577 225.109 178.577H189.842C185.623 178.577 182.203 175.157 182.203 170.938Z" fill="#8D8D8D"/><path d="M182.203 109.672C182.203 105.453 185.623 102.033 189.842 102.033H199.124V184.336H189.842C185.623 184.336 182.203 180.915 182.203 176.697V109.672Z" fill="#8D8D8D"/><path d="M187.47 112.872C187.47 109.793 189.965 107.297 193.044 107.297H221.909C224.988 107.297 227.484 109.793 227.484 112.872V144.721C227.484 147.8 224.988 150.296 221.909 150.296H193.044C189.965 150.296 187.47 147.8 187.47 144.721V112.872Z" fill="#8D8D8D"/><path d="M213.11 99.9173C217.578 104.086 221.633 109.695 224.118 115.712C226.398 121.235 229.276 131.828 225.225 141.576L213.11 99.9173Z" fill="#D9D9D9"/><path d="M226.862 92.6024C228.384 91.6431 230.367 92.124 230.999 93.8083C233.78 101.213 231.369 114.752 226.084 120.861L209.39 108.386C210.996 105.768 220.244 96.7735 226.862 92.6024Z" fill="#D4D4D4"/><path d="M213.104 99.7703C213.056 99.8842 213.035 100.016 213.05 100.154C212.276 99.7604 211.432 99.5701 210.595 99.6284C210.162 99.6586 209.929 100.154 210.136 100.608C210.136 100.608 211.582 102.877 212.334 104.528C213.086 106.179 213.987 109.065 213.987 109.065C214 109.093 214.014 109.12 214.029 109.147C214.156 109.612 214.332 110.124 214.563 110.684C215.738 113.53 214.335 115.123 211.542 115.447L211.5 115.442C209.211 115.12 205.505 114.037 205.505 114.037C204.877 113.949 204.348 114.497 204.46 115.121C204.734 116.64 205.498 117.996 206.589 119.02C205.167 118.751 204.029 118.491 204.029 118.491C203.375 118.438 202.863 119.036 203.017 119.673C203.479 121.579 204.688 123.185 206.315 124.187C204.741 127.321 204.706 131.113 206.438 134.361L207.953 137.2C210.854 142.639 217.634 145.928 221.862 141.443C224.502 138.643 226.111 134.407 223.715 128.143C223.25 126.925 222.754 125.787 222.246 124.729C223.806 124.334 225.272 123.791 226.445 123.296C225.821 120.302 224.931 117.685 224.117 115.713C222.496 111.786 220.205 108.032 217.567 104.739C216.257 102.898 214.756 101.236 213.104 99.7703Z" fill="#D3E757"/><path d="M208.542 158.076C208.301 158.198 208.054 158.311 207.8 158.415C207.571 158.51 202.266 155.493 195.742 152.456C194.599 152.456 193.488 152.109 192.599 151.39C187.904 147.59 177.143 137.649 175.796 136.231L173.043 133.335C167.342 127.338 167.574 118.408 172.438 112.653C171.142 104.228 175.698 95.696 183.927 92.2986C199.106 86.0314 216.493 93.2566 222.76 108.436L226.605 117.75C233.015 133.275 225.625 151.056 210.101 157.466L208.567 158.099L208.542 158.076Z" fill="#A7DA53"/><path d="M208.542 158.076C208.301 158.198 208.054 158.311 207.8 158.415C207.571 158.51 202.266 155.493 195.742 152.456C194.599 152.456 193.488 152.109 192.599 151.39C187.904 147.59 177.143 137.649 175.796 136.231L173.043 133.335C167.342 127.338 167.574 118.408 172.438 112.653C171.142 104.228 175.698 95.696 183.927 92.2986C199.106 86.0314 216.493 93.2566 222.76 108.436L226.605 117.75C233.015 133.275 225.625 151.056 210.101 157.466L208.567 158.099L208.542 158.076Z" fill="#D4D4D4"/><path d="M214.904 97.6141C219.372 101.782 223.427 107.392 225.911 113.409C228.192 118.932 231.07 129.525 227.019 139.273L214.904 97.6141Z" fill="#D4D4D4"/><path d="M206.871 92.3735C213.758 95.3295 218.061 99.7255 223.483 108.514C223.483 108.514 228.5 118.028 226.99 119.005C225.479 119.982 222.005 117.278 220.55 114.884L206.871 92.3735Z" fill="#E5E5E5"/><path d="M209.795 110.501C209.795 110.501 206.583 111.729 204.319 112.195C202.055 112.662 198.201 112.888 198.201 112.888C197.58 113.016 197.266 113.711 197.581 114.26C199.096 116.898 202.188 118.298 205.251 117.668C208.314 117.037 210.587 114.532 210.915 111.514C210.984 110.886 210.417 110.373 209.795 110.501Z" fill="#E5E5E5"/><path d="M204.996 91.6421C205.918 91.9664 206.824 92.3358 207.71 92.7488C209.103 93.7139 210.421 94.8034 211.645 96.0114C211.827 97.472 211.471 98.9033 210.604 99.9443C210.326 100.279 209.79 100.177 209.546 99.7427C209.546 99.7427 208.405 96.9438 207.516 95.3618C206.639 93.8004 205.038 91.6966 204.996 91.6421Z" fill="#E5E5E5"/><path d="M210.129 114.403C210.129 114.403 206.889 115.868 204.581 116.488C202.273 117.108 198.309 117.578 198.309 117.578C197.675 117.748 197.393 118.485 197.753 119.032C199.478 121.662 202.755 122.918 205.878 122.079C209.001 121.241 211.193 118.516 211.347 115.381C211.379 114.728 210.763 114.233 210.129 114.403Z" fill="#E5E5E5"/><path d="M213.28 98.6031C214.813 100.367 214.47 103.834 215.589 106.004L220.206 114.959C220.788 116.088 221.292 117.236 221.721 118.398C217.887 120.33 211.441 122.664 208.135 118.695C202.864 118.024 203.94 112.056 205.754 111.824C208.964 111.413 212.981 107.952 210.008 100.63C207.116 95.0217 211.733 98.688 213.28 98.6031Z" fill="#E5E5E5"/><path d="M214.544 107.456C212.031 102.098 213.989 98.8548 218.012 102C223.204 106.059 225.444 112.716 225.636 113.242C226.598 115.869 225.821 117.848 224.09 117.519C220.341 116.805 216.812 112.287 214.544 107.456Z" fill="white"/><path d="M224.865 111.261C225.216 112.108 225.741 113.177 225.837 113.465C226.787 116.097 226.719 118.609 224.961 118.282C224.85 118.261 224.066 117.513 223.955 117.485C223.594 115.798 223.825 114.154 224.294 112.71C224.465 112.184 224.565 111.662 224.865 111.261Z" fill="#E5E5E5"/><path d="M219.686 111.148C220.159 111.953 220.044 112.9 219.429 113.261C218.814 113.623 217.932 113.263 217.458 112.457C216.984 111.651 217.099 110.705 217.714 110.343C218.33 109.982 219.212 110.342 219.686 111.148Z" fill="#8D8D8D"/><path fill-rule="evenodd" clip-rule="evenodd" d="M207.626 164.465C207.187 165.562 207.187 165.562 207.188 165.562L207.191 165.564L207.196 165.566L207.213 165.573C207.227 165.578 207.246 165.585 207.27 165.594C207.318 165.612 207.385 165.637 207.471 165.667C207.641 165.727 207.885 165.808 208.189 165.897C208.795 166.075 209.649 166.288 210.651 166.43C212.63 166.711 215.311 166.733 217.784 165.527C218.37 165.241 218.614 164.533 218.328 163.947C218.041 163.36 217.334 163.117 216.747 163.403C214.876 164.316 212.737 164.339 210.983 164.09C210.118 163.967 209.377 163.783 208.854 163.629C208.594 163.553 208.389 163.485 208.254 163.437C208.186 163.413 208.135 163.395 208.103 163.383L208.07 163.37L208.064 163.367C208.063 163.367 208.063 163.367 208.064 163.367M208.065 163.368C208.065 163.368 208.065 163.368 208.065 163.368L208.064 163.367L208.065 163.368ZM208.065 163.368C208.065 163.368 208.065 163.368 208.065 163.368C207.459 163.126 206.772 163.42 206.529 164.026C206.287 164.632 206.582 165.32 207.188 165.562L207.626 164.465" fill="#8D8D8D"/><path fill-rule="evenodd" clip-rule="evenodd" d="M207.634 164.465C208.073 165.562 208.072 165.562 208.072 165.562L208.069 165.564L208.063 165.566L208.046 165.573C208.032 165.578 208.013 165.585 207.99 165.594C207.942 165.612 207.874 165.637 207.789 165.667C207.618 165.727 207.375 165.808 207.071 165.897C206.465 166.075 205.61 166.288 204.609 166.43C202.63 166.711 199.949 166.733 197.476 165.527C196.89 165.241 196.646 164.533 196.932 163.947C197.218 163.36 197.926 163.117 198.512 163.403C200.384 164.316 202.523 164.339 204.277 164.09C205.142 163.967 205.883 163.783 206.406 163.629C206.666 163.553 206.87 163.485 207.006 163.437C207.074 163.413 207.125 163.395 207.157 163.383L207.19 163.37L207.196 163.367C207.196 163.367 207.196 163.367 207.196 163.367M207.195 163.368C207.195 163.368 207.195 163.368 207.195 163.368L207.196 163.367L207.195 163.368ZM207.195 163.368C207.195 163.368 207.195 163.368 207.195 163.368C207.801 163.126 208.488 163.42 208.731 164.026C208.973 164.632 208.678 165.32 208.072 165.562L207.634 164.465" fill="#8D8D8D"/><path d="M223.51 137.196C223.974 136.558 225.624 134.158 226.229 133.164C226.59 132.595 226.952 132.897 227.087 133.096C227.258 133.347 227.86 135.318 226.191 137.185C224.522 139.051 223.046 137.834 223.51 137.196Z" fill="#E5E5E5"/><path d="M193.042 150.295H185.895V157.741H196.594L207.713 158.643L218.585 157.741H230.071V146.862H227.055C226.216 148.878 224.227 150.295 221.907 150.295H193.042Z" fill="#9A9A9A"/><path d="M199.123 150.295V158.643H185.895V150.295H188.473C188.473 150.295 190.722 150.295 193.042 150.295H199.123Z" fill="#8D8D8D"/><path fill-rule="evenodd" clip-rule="evenodd" d="M206.452 178.885L206.452 160.629C206.452 159.977 206.981 159.448 207.634 159.448C208.286 159.448 208.815 159.977 208.815 160.629L208.815 178.885C208.815 179.537 208.286 180.066 207.634 180.066C206.981 180.066 206.452 179.537 206.452 178.885Z" fill="#8D8D8D"/><path d="M210.055 149.264C211.457 150.262 211.943 152.368 210.581 153.42C205.246 157.542 197.064 157.508 191.101 154.073C183.825 149.88 189.781 135.103 189.763 134.669C189.763 134.669 197.382 140.245 202.32 143.523C205.107 145.373 207.786 147.65 210.055 149.264Z" fill="#D4D4D4"/><path d="M210.771 143.283C210.771 150.342 205.047 156.065 197.988 156.065C190.928 156.065 185.205 150.342 185.205 143.283C185.205 136.223 190.928 130.5 197.988 130.5C205.047 130.5 210.771 136.223 210.771 143.283Z" fill="#D4D4D4"/><path d="M183.213 131.315C183.629 131.752 185.058 133.107 186.918 134.829C187.447 135.318 187.691 136.036 187.629 136.754C187.592 137.175 187.572 137.601 187.572 138.025C187.572 139.213 187.701 140.37 187.947 141.484C188.044 141.92 188.158 142.349 188.289 142.771C189.274 145.938 191.218 148.681 193.781 150.662C196.479 152.747 199.861 153.987 203.533 153.987C206.386 153.987 209.064 153.238 211.382 151.927C211.337 152.496 211.086 153.031 210.582 153.421C206.166 156.833 199.799 157.398 194.355 155.542C193.324 155.237 192.347 154.805 191.442 154.264C191.328 154.202 191.214 154.138 191.102 154.073C190.654 153.816 190.257 153.518 189.905 153.186C187.475 151.199 185.79 148.337 185.332 145.08C180.994 141.18 176.623 137.102 175.797 136.232L173.044 133.336C167.343 127.338 167.575 118.409 172.44 112.654C171.143 104.229 175.699 95.6966 183.928 92.2992C189.353 90.0592 195.061 89.5428 200.441 90.4972L200.396 90.4971C197.057 90.4938 193.238 90.49 189.964 91.8416C182.692 94.8438 179.635 100.224 180.78 107.669C175.613 112.755 175.309 123.456 180.78 128.756L183.213 131.315Z" fill="#D4D4D4"/><path d="M203.841 131.344C200.768 127.289 200.859 121.661 204.06 117.707L205.081 116.446C207.251 113.765 210.894 112.748 213.629 114.849C215.577 116.345 217.841 118.539 219.916 121.678C223.7 127.402 222.756 132.015 220.462 135.41C216.879 140.715 209.363 138.633 205.497 133.53L203.841 131.344Z" fill="#E5E5E5"/><path d="M206.535 130.753C203.632 127.085 203.572 121.919 206.389 118.185C208.056 115.973 211.022 115.151 213.243 116.806C215.672 118.617 218.567 121.551 220.009 125.889C221.508 130.398 219.724 133.507 217.531 135.5C214.965 137.831 211.171 136.612 209.02 133.894L206.535 130.753Z" fill="white"/><path d="M204.235 128.126C207.792 124.58 209.646 118.656 209.167 113.732C207.744 113.953 206.372 114.767 205.38 116.011C202.441 119.696 201.87 124.144 204.235 128.126Z" fill="#E5E5E5"/><path d="M220.553 129.512C220.423 132.131 219.079 134.093 217.531 135.5C215.296 137.531 211.117 137.502 208.915 135.5C210.871 132.693 216.891 129.969 220.553 129.512Z" fill="#E5E5E5"/><path d="M211.161 126.993C211.276 127.92 210.618 128.765 209.691 128.881C208.763 128.997 207.918 128.339 207.802 127.411C207.686 126.484 208.345 125.638 209.272 125.523C210.199 125.407 211.045 126.065 211.161 126.993Z" fill="#8D8D8D"/><path d="M219.212 120.916C218.467 119.872 218.71 118.421 219.754 117.676C221.291 116.58 223.446 117.148 224.243 118.86L226.372 123.435C226.808 124.373 226.533 125.489 225.71 126.116C224.721 126.869 223.304 126.655 222.583 125.642L219.212 120.916Z" fill="#BFBFBF"/><path d="M221.258 121.442C220.379 120.195 220.677 118.472 221.924 117.593L222.577 117.132C222.617 117.104 222.672 117.118 222.693 117.162L225.633 123.197C225.905 123.755 225.741 124.428 225.242 124.798C224.66 125.23 223.837 125.098 223.419 124.506L221.258 121.442Z" fill="#8D8D8D"/><path d="M218.298 116.765C220.472 113.209 225.05 116.768 224.431 117.117C221.383 118.84 220.472 122.662 220.472 122.662C217.767 119.669 217.787 117.6 218.298 116.765Z" fill="#D4D4D4"/><path d="M225.585 123.098L225.633 123.198C225.905 123.756 225.741 124.429 225.242 124.799C224.66 125.231 223.837 125.099 223.419 124.507L222.188 122.762C222.52 122.41 222.972 122.167 223.489 122.103C224.349 121.996 225.153 122.41 225.585 123.098Z" fill="#E5E5E5"/><path d="M210.879 150.296H212.849C212.62 149.721 212.261 149.195 211.834 148.713C211.196 147.991 210.359 147.317 209.441 146.674C208.519 146.03 207.481 145.392 206.423 144.754C206.239 144.643 206.055 144.533 205.87 144.421C204.984 143.889 204.092 143.352 203.223 142.793L203.221 142.792L198.441 139.75C198.036 139.493 197.5 139.612 197.242 140.016C196.985 140.421 197.104 140.958 197.509 141.215L202.286 144.255C203.178 144.828 204.096 145.381 204.982 145.914C205.165 146.024 205.347 146.133 205.526 146.241C206.584 146.879 207.577 147.49 208.445 148.097C209.316 148.707 210.027 149.29 210.534 149.864C210.665 150.012 210.78 150.156 210.879 150.296Z" fill="#BFBFBF"/><path fill-rule="evenodd" clip-rule="evenodd" d="M207.61 172.133C207.171 173.23 207.171 173.23 207.171 173.23L207.174 173.232L207.18 173.234L207.197 173.24C207.211 173.246 207.23 173.253 207.254 173.262C207.301 173.28 207.369 173.305 207.454 173.335C207.625 173.395 207.868 173.476 208.172 173.565C208.778 173.743 209.633 173.956 210.634 174.098C212.614 174.379 215.295 174.401 217.767 173.195C218.354 172.909 218.597 172.201 218.311 171.615C218.025 171.028 217.317 170.785 216.731 171.071C214.859 171.984 212.721 172.007 210.966 171.758C210.101 171.635 209.36 171.451 208.838 171.297C208.577 171.221 208.373 171.153 208.237 171.105C208.169 171.081 208.118 171.063 208.087 171.051L208.053 171.038L208.047 171.035C208.047 171.035 208.047 171.035 208.047 171.035M208.048 171.036C208.048 171.036 208.048 171.036 208.048 171.036L208.047 171.035L208.048 171.036ZM208.048 171.036C208.048 171.036 208.048 171.036 208.048 171.036C207.442 170.794 206.755 171.088 206.513 171.694C206.27 172.3 206.565 172.988 207.171 173.23L207.61 172.133" fill="#8D8D8D"/><path fill-rule="evenodd" clip-rule="evenodd" d="M207.615 172.133C208.054 173.23 208.054 173.23 208.053 173.23L208.05 173.232L208.045 173.234L208.028 173.24C208.014 173.246 207.995 173.253 207.971 173.262C207.923 173.28 207.856 173.305 207.77 173.335C207.6 173.395 207.356 173.476 207.052 173.565C206.446 173.743 205.592 173.956 204.59 174.098C202.611 174.379 199.93 174.401 197.457 173.195C196.871 172.909 196.627 172.201 196.914 171.615C197.2 171.028 197.907 170.785 198.494 171.071C200.365 171.984 202.504 172.007 204.258 171.758C205.124 171.635 205.865 171.451 206.387 171.297C206.648 171.221 206.852 171.153 206.988 171.105C207.055 171.081 207.106 171.063 207.138 171.051L207.172 171.038L207.178 171.035C207.178 171.035 207.178 171.035 207.178 171.035M207.177 171.036C207.177 171.036 207.177 171.036 207.177 171.036L207.178 171.035L207.177 171.036ZM207.177 171.036C207.177 171.036 207.177 171.036 207.177 171.036C207.782 170.794 208.47 171.088 208.712 171.694C208.955 172.3 208.659 172.988 208.053 173.23L207.615 172.133" fill="#8D8D8D"/><path fill-rule="evenodd" clip-rule="evenodd" d="M149.88 212.195C149.131 213.492 147.472 213.938 146.174 213.189L131.602 204.783C130.304 204.035 129.859 202.375 130.608 201.078C131.356 199.78 133.016 199.334 134.313 200.083L148.885 208.489C150.183 209.238 150.629 210.897 149.88 212.195Z" fill="#A6A6A6"/><path d="M134.32 207.73C135.527 210.387 138.66 211.563 141.318 210.356L152.919 205.086C155.577 203.879 156.753 200.746 155.546 198.089C154.339 195.431 151.206 194.256 148.548 195.463L136.947 200.732C134.289 201.939 133.113 205.072 134.32 207.73Z" fill="#D4D4D4"/><path d="M66.9171 73.9647C64.6991 71.3503 62.775 69.081 61.3261 67.3425C59.2919 64.9016 55.6642 64.572 53.2233 66.6062C50.7825 68.6404 50.4529 72.2682 52.4871 74.709C53.9976 76.5214 55.872 78.7333 57.9929 81.2327L66.9171 73.9647Z" fill="#D5D5D5"/><path d="M134.65 51.2754L124.247 46.3369C125.361 43.6824 126.465 41.0509 127.731 38.0941C128.981 35.1739 132.362 33.82 135.282 35.0701C138.202 36.3202 139.556 39.7009 138.306 42.6212C136.972 45.7364 135.812 48.5026 134.65 51.2754Z" fill="#D5D5D5"/><path d="M123.554 36.1483C124.406 42.8423 130.523 47.5782 137.217 46.726C143.911 45.8739 148.647 39.7566 147.795 33.0625C146.943 26.3685 140.825 21.6327 134.131 22.4848C127.437 23.3369 122.701 29.4543 123.554 36.1483Z" fill="#D5D5D5"/><path fill-rule="evenodd" clip-rule="evenodd" d="M131.802 29.5976C131.267 29.6689 130.892 30.1601 130.963 30.6948C131.473 34.5182 133.862 37.2179 136.711 38.6916C139.531 40.1502 142.909 40.4643 145.535 39.406C146.035 39.2043 146.277 38.6353 146.075 38.135C145.874 37.6347 145.305 37.3926 144.804 37.5943C142.801 38.402 140.02 38.204 137.609 36.9566C135.226 35.7242 133.311 33.5237 132.899 30.4367C132.828 29.902 132.337 29.5264 131.802 29.5976Z" fill="#BFBFBF"/><path fill-rule="evenodd" clip-rule="evenodd" d="M138.085 30.6243C137.9 32.137 137.348 34.0911 135.885 35.9104C135.547 36.3307 135.614 36.9455 136.034 37.2836C136.454 37.6217 137.069 37.555 137.407 37.1347C139.157 34.9598 139.808 32.6316 140.024 30.8607C140.132 29.9745 140.132 29.2211 140.104 28.6842C140.09 28.4153 140.069 28.1995 140.051 28.0471C140.042 27.9709 140.034 27.9103 140.027 27.8668C140.024 27.8451 140.021 27.8276 140.019 27.8145L140.016 27.7981L140.015 27.7924L140.015 27.7902L140.015 27.7893C140.015 27.7889 140.015 27.7885 139.103 27.9492L140.015 27.7885C139.921 27.2572 139.414 26.9026 138.883 26.9962C138.353 27.0898 137.999 27.5947 138.091 28.1249C138.091 28.1254 138.091 28.1258 138.091 28.1262C138.091 28.1263 138.091 28.1264 138.091 28.1265L138.091 28.1264L138.091 28.1282L138.095 28.154C138.099 28.1793 138.105 28.2209 138.111 28.2774C138.125 28.3905 138.142 28.563 138.153 28.785C138.176 29.2298 138.177 29.8686 138.085 30.6243Z" fill="#BFBFBF"/><path fill-rule="evenodd" clip-rule="evenodd" d="M140.391 39.192C140.039 38.7832 140.085 38.1665 140.494 37.8146C141.966 36.5477 142.684 34.9084 143.032 33.5441C143.205 32.8654 143.282 32.2689 143.316 31.8454C143.333 31.6342 143.339 31.4677 143.341 31.3575C143.341 31.3024 143.341 31.2616 143.341 31.2364L143.341 31.2106L143.341 31.2095C143.341 31.2093 143.341 31.2091 143.341 31.2088M143.341 31.2088C143.322 30.6701 143.743 30.218 144.282 30.1989C144.821 30.1798 145.274 30.6013 145.293 31.1404L144.317 31.175C145.293 31.1404 145.293 31.1408 145.293 31.1412L145.293 31.142L145.293 31.1441L145.293 31.1495L145.294 31.1653C145.294 31.178 145.294 31.1949 145.294 31.216C145.295 31.2582 145.295 31.3168 145.294 31.3905C145.291 31.5376 145.283 31.7452 145.263 32.001C145.222 32.5114 145.13 33.2199 144.925 34.0263C144.516 35.6322 143.642 37.6828 141.768 39.2951C141.36 39.647 140.743 39.6008 140.391 39.192" fill="#BFBFBF"/><path d="M121.094 33.2603C121.353 36.1238 123.883 38.2357 126.747 37.9773C129.61 37.7189 131.722 35.1881 131.464 32.3245C131.206 29.461 128.675 27.3491 125.811 27.6075C122.948 27.8659 120.836 30.3967 121.094 33.2603Z" fill="#D5D5D5"/><path d="M125.655 27.6112C125.711 27.6151 125.767 27.6147 125.824 27.6095C128.679 27.3519 131.203 29.4577 131.461 32.313C131.658 34.4976 130.471 36.4904 128.62 37.4203C128.107 37.6782 127.9 38.3032 128.158 38.8164C128.416 39.3296 129.041 39.5366 129.554 39.2788C132.142 37.9783 133.808 35.1898 133.532 32.1261C133.226 28.7349 130.638 26.0985 127.42 25.5952C126.759 26.2014 126.167 26.878 125.655 27.6112Z" fill="#BFBFBF"/><path fill-rule="evenodd" clip-rule="evenodd" d="M164.93 170.398C155.434 177.61 143.731 176.036 136.346 171.697L138.452 168.111C144.778 171.827 154.591 173.027 162.415 167.086L164.93 170.398Z" fill="#A6A6A6"/><path fill-rule="evenodd" clip-rule="evenodd" d="M146.061 166.232C143.454 165.871 140.591 164.896 137.313 162.737L139.6 159.263C142.398 161.106 144.679 161.842 146.631 162.112C148.465 162.365 150.074 162.225 151.818 162.072C151.978 162.059 152.138 162.044 152.3 162.031C154.169 161.871 156.291 161.73 158.526 162.446C160.809 163.177 162.976 164.714 165.234 167.452L162.025 170.098C160.119 167.787 158.577 166.83 157.257 166.407C155.891 165.969 154.519 166.016 152.654 166.175C152.49 166.189 152.322 166.204 152.15 166.219C150.443 166.371 148.383 166.553 146.061 166.232Z" fill="#A6A6A6"/><path fill-rule="evenodd" clip-rule="evenodd" d="M151.873 171.984C148.564 173.544 145.727 176.369 144.014 180.939L140.119 179.478C142.197 173.937 145.77 170.262 150.1 168.221C154.386 166.201 159.269 165.848 163.943 166.647L163.242 170.747C159.21 170.057 155.225 170.404 151.873 171.984Z" fill="#A6A6A6"/><path d="M168.361 147.296C171.458 147.296 173.969 149.807 173.969 152.904L173.969 174.273C173.969 177.37 171.458 179.881 168.361 179.881C165.264 179.881 162.753 177.37 162.753 174.273L162.753 152.904C162.753 149.807 165.264 147.296 168.361 147.296Z" fill="#A6A6A6"/><path d="M169.582 147.429C169.189 147.342 168.78 147.296 168.361 147.296C165.264 147.296 162.753 149.807 162.753 152.904V174.273C162.753 177.37 165.264 179.881 168.361 179.881C168.78 179.881 169.189 179.835 169.582 179.747C168.147 179.335 167.097 178.012 167.097 176.445V150.732C167.097 149.164 168.147 147.842 169.582 147.429Z" fill="#8D8D8D"/><path d="M60.5593 56.2591C64.8519 61.4659 64.1107 69.1666 58.9039 73.4591C53.6972 77.7516 45.9965 77.0105 41.7039 71.8037C37.4114 66.5969 38.1526 58.8962 43.3593 54.6037C48.5661 50.3112 56.2668 51.0523 60.5593 56.2591Z" fill="#D5D5D5"/><path fill-rule="evenodd" clip-rule="evenodd" d="M45.4834 63.8407C45.2239 64.3136 45.3969 64.9073 45.8697 65.1668C47.2054 65.8998 48.5267 66.8989 49.5881 67.8185C50.6683 68.7544 51.4035 69.5415 51.6074 69.8271C51.921 70.266 52.531 70.3677 52.9699 70.0541C53.4088 69.7406 53.5105 69.1306 53.197 68.6917C52.8534 68.2107 51.9734 67.3005 50.8672 66.3422C49.7423 65.3676 48.3061 64.2756 46.8095 63.4543C46.3366 63.1948 45.7429 63.3678 45.4834 63.8407Z" fill="#BFBFBF"/><path fill-rule="evenodd" clip-rule="evenodd" d="M48.6009 57.6057C48.3472 58.0817 48.5273 58.6733 49.0033 58.9271C51.4928 60.2543 52.9943 61.6692 53.864 62.7218C54.2998 63.2493 54.5796 63.689 54.7463 63.9857C54.8297 64.1341 54.8849 64.2469 54.9173 64.3172C54.9334 64.3523 54.9439 64.3768 54.9493 64.3898L54.9535 64.4002C55.1443 64.9012 55.704 65.1551 56.2072 64.9676C56.7127 64.7792 56.9697 64.2168 56.7814 63.7113L55.8662 64.0524C56.7814 63.7113 56.7812 63.7108 56.781 63.7103L56.7806 63.7091L56.7796 63.7066L56.7774 63.7008L56.7715 63.6856C56.7669 63.6739 56.761 63.6592 56.7536 63.6415C56.7389 63.6061 56.7186 63.5589 56.6919 63.5008C56.6384 63.3846 56.5594 63.2248 56.4493 63.0288C56.2289 62.6366 55.8841 62.0999 55.3699 61.4776C54.3396 60.2306 52.6394 58.6519 49.9223 57.2033C49.4463 56.9496 48.8547 57.1297 48.6009 57.6057Z" fill="#BFBFBF"/><path fill-rule="evenodd" clip-rule="evenodd" d="M55.6917 60.8924C56.2259 60.8179 56.7195 61.1905 56.794 61.7248C57.3182 65.4813 55.8155 68.579 53.5357 70.6008C51.2839 72.5978 48.2146 73.597 45.4992 73.1211C44.9679 73.028 44.6126 72.5218 44.7057 71.9905C44.7989 71.4592 45.3051 71.1039 45.8364 71.197C47.8808 71.5553 50.3649 70.802 52.2396 69.1393C54.0864 67.5015 55.2832 65.0325 54.8594 61.9947C54.7848 61.4605 55.1575 60.967 55.6917 60.8924Z" fill="#BFBFBF"/><path d="M64.5111 57.3511C64.4915 60.2513 62.1245 62.5865 59.2243 62.5669C56.3241 62.5473 53.9889 60.1803 54.0085 57.2801C54.0281 54.3799 56.395 52.0447 59.2953 52.0643C62.1955 52.0839 64.5307 54.4508 64.5111 57.3511Z" fill="#D5D5D5"/><path d="M56.3487 52.9791C54.9649 53.9099 54.05 55.4861 54.0379 57.2796C54.0184 60.1635 56.3405 62.5171 59.2243 62.5366C59.7987 62.5405 60.2611 63.0092 60.2572 63.5835C60.2533 64.1578 59.7846 64.6202 59.2103 64.6163C55.1778 64.5891 51.9309 61.298 51.9582 57.2656C51.9716 55.2772 52.7786 53.4799 54.0767 52.1719C54.8549 52.3645 55.6163 52.634 56.3487 52.9791Z" fill="#BFBFBF"/><path d="M54.082 76.5951L54.8771 75.9476C57.5153 73.799 61.3856 74.1552 63.5738 76.7607C74.2362 89.4566 90.7466 109.412 95.3588 116.687C96.4179 118.358 95.9222 120.57 94.2518 121.629C92.9157 122.476 91.2328 122.329 90.0707 121.381C86.2254 115.505 79.5629 107.057 72.5315 98.5256C67.619 92.5648 58.1314 81.3667 54.082 76.5951Z" fill="#A6A6A6"/><path d="M63.537 76.7177C61.3424 74.1517 57.5006 73.8115 54.8771 75.9481L54.082 76.5956C55.0993 77.7943 56.4597 79.3985 58.0046 81.2234L63.537 76.7177Z" fill="#D4D4D4"/><path d="M110.156 41.6033C107.73 40.6567 105.09 40.1372 102.329 40.1372C93.6149 40.1372 86.1094 45.3104 82.7158 52.7532C96.6055 55.0007 107.366 46.9373 110.541 41.8546C110.442 41.7916 110.335 41.7213 110.22 41.645C110.199 41.6313 110.178 41.6174 110.156 41.6033Z" fill="#A6A6A6"/></svg>